<svg width="239" height="100" viewBox="0 0 239 100" fill="none" xmlns="http://www.w3.org/2000/svg">
<g filter="url(#filter0_d_405_3200)">
<path d="M209.575 79.2511L21.1871 80.2948C21.1871 80.2948 14.8751 76.0137 10.1533 72.4671C5.54591 69.0065 6.0133 61.5083 6.0133 61.5083H224.842C224.842 61.5083 226.142 68.8942 221.293 72.4671C216.587 75.9346 209.575 79.2511 209.575 79.2511Z" fill="url(#paint0_linear_405_3200)" shape-rendering="crispEdges"/>
</g>
<rect x="6.01318" width="218.828" height="62.6913" rx="2" fill="white"/>
<rect x="14.2932" y="8.27979" width="21.2914" height="9.46284" rx="2" fill="#081422"/>
<rect x="6.01318" y="54.4111" width="218.828" height="8.27999" fill="url(#paint1_linear_405_3200)"/>
<rect x="6.01318" y="2.36572" width="218.828" height="1.18286" fill="url(#paint2_linear_405_3200)"/>
<rect opacity="0.2" x="6.01318" y="59.1426" width="218.828" height="1.18286" fill="#6E6E6E"/>
<path d="M6.01318 62.7324H225V64.9067C225 64.9067 137.396 69.2342 106.722 68.9537C78.3134 68.694 6.01318 64.9067 6.01318 64.9067V62.7324Z" fill="#151515"/>
<defs>
<filter id="filter0_d_405_3200" x="0" y="60.5083" width="239" height="38.7866" filterUnits="userSpaceOnUse" color-interpolation-filters="sRGB">
<feFlood flood-opacity="0" result="BackgroundImageFix"/>
<feColorMatrix in="SourceAlpha" type="matrix" values="0 0 0 0 0 0 0 0 0 0 0 0 0 0 0 0 0 0 127 0" result="hardAlpha"/>
<feOffset dx="4" dy="9"/>
<feGaussianBlur stdDeviation="5"/>
<feComposite in2="hardAlpha" operator="out"/>
<feColorMatrix type="matrix" values="0 0 0 0 0 0 0 0 0 0 0 0 0 0 0 0 0 0 0.1 0"/>
<feBlend mode="normal" in2="BackgroundImageFix" result="effect1_dropShadow_405_3200"/>
<feBlend mode="normal" in="SourceGraphic" in2="effect1_dropShadow_405_3200" result="shape"/>
</filter>
<linearGradient id="paint0_linear_405_3200" x1="116.019" y1="79.2511" x2="116.019" y2="62.8731" gradientUnits="userSpaceOnUse">
<stop stop-color="#CACACA"/>
<stop offset="1" stop-color="#8A8A8A" stop-opacity="0"/>
</linearGradient>
<linearGradient id="paint1_linear_405_3200" x1="115.427" y1="54.4111" x2="115.427" y2="62.6911" gradientUnits="userSpaceOnUse">
<stop stop-color="#E7E7E7"/>
<stop offset="1" stop-color="white" stop-opacity="0"/>
</linearGradient>
<linearGradient id="paint2_linear_405_3200" x1="6.01318" y1="2.36572" x2="243.767" y2="3.54858" gradientUnits="userSpaceOnUse">
<stop stop-color="#E7E7E7"/>
<stop offset="0.520833" stop-color="white" stop-opacity="0"/>
<stop offset="0.984375" stop-color="#E9E9E9" stop-opacity="0.901042"/>
</linearGradient>
</defs>
</svg>
