<svg width="79" height="24" viewBox="0 0 79 24" fill="none" xmlns="http://www.w3.org/2000/svg">
<path d="M69.6367 5.68553C71.8985 5.61494 73.3934 6.51035 74.9486 8.03441C74.9429 7.40675 74.9407 6.77909 74.9423 6.15143L78.904 6.1487L78.8899 16.3719C78.8856 18.5032 78.8178 20.9651 78.8971 23.0528C77.7101 23.0409 76.1033 23.0092 74.9447 23.0818L74.9399 21.0488C74.4881 21.591 74.1756 21.8573 73.6069 22.2635C70.641 24.0854 67.4745 23.932 64.7621 21.6959C62.967 20.2041 61.8416 18.0571 61.636 15.7317C61.2828 12.0412 62.9831 8.6063 66.1516 6.66046C67.2384 5.99304 68.3859 5.80383 69.6367 5.68553ZM70.6503 20.1052C75.4961 19.976 76.3667 12.8496 73.2877 10.0795C72.5491 9.4149 71.4303 8.90227 70.426 9.06033C69.7022 9.12612 69.0712 9.21588 68.4169 9.55749C65.0288 11.3258 64.8143 16.8281 67.6846 19.1584C68.5805 19.8856 69.522 20.1133 70.6503 20.1052Z" fill="#161616"/>
<path d="M14.9677 5.79452C14.9836 5.7931 14.9995 5.79158 15.0154 5.79016C17.1871 5.78047 19.3612 6.34724 20.9704 7.85136C22.5846 9.36039 23.411 11.4001 23.5153 13.5719C23.5542 14.3816 23.487 15.1499 23.5224 15.9078L23.5252 15.9612C20.57 15.9957 17.6146 16.0037 14.6592 15.9854C13.4258 15.9856 12.0873 15.9574 10.8623 16.0052C10.9324 16.5206 11.082 17.022 11.3057 17.4916C13.033 21.1364 17.9528 20.5182 20.9584 19.061C21.2291 18.9114 21.5237 18.7638 21.7994 18.6196C21.8837 19.5591 21.836 21.0595 21.8463 22.0631C15.6607 25.1806 7.42067 23.208 6.69982 15.4564C6.18927 9.96703 9.5905 6.27077 14.9677 5.79452ZM10.8581 13.2889C12.1805 13.2903 13.6358 13.3219 14.9451 13.2346C16.4016 13.1474 18.066 13.1977 19.5445 13.2063C19.1169 10.9255 18.1412 9.17652 15.5746 9.12085C13.4086 9.13414 11.362 10.0073 10.9441 12.3537C10.8911 12.6514 10.8812 12.9839 10.8581 13.2889Z" fill="#161616"/>
<path d="M33.62 5.84623C36.0329 5.53828 38.905 6.58773 40.5139 8.42246C42.4202 10.5963 42.7032 13.2422 42.5259 16.0031C38.4194 16.0094 34.0206 15.9022 29.9442 16.0082C30.5432 20.0743 34.4328 20.7398 37.8011 19.8648C38.5028 19.6826 39.1081 19.4622 39.7758 19.1971C40.175 19.0103 40.4641 18.8549 40.8474 18.6351C40.8085 19.7672 40.7893 20.9 40.7895 22.0328C39.3515 22.7873 37.7853 23.2664 36.1714 23.4455C33.5453 23.7121 30.7892 23.1774 28.7309 21.4571C25.0876 18.4123 24.7226 12.3172 27.7245 8.70819C29.2698 6.85036 31.2691 6.05767 33.62 5.84623ZM29.9122 13.277L34.5481 13.2741C35.8838 13.2517 37.2198 13.243 38.5557 13.2482C38.1616 10.7253 36.9969 9.05372 34.2429 9.11461C31.4585 9.3669 30.1503 10.4885 29.9122 13.277Z" fill="#161616"/>
<path d="M0 0.00668283C1.34422 -0.00617108 2.68844 -0.000507787 4.03245 0.0238929C3.9817 3.07583 4.04268 6.32089 4.04268 9.39287L4.04214 23.055C2.79593 23.0313 1.29641 23.0776 0.0301661 23.088C-0.026247 20.9241 0.040185 18.6702 0.0202553 16.4959C-0.0300591 11.0175 0.0780853 5.48005 0 0.00668283Z" fill="#161616"/>
<path d="M58.1423 6.15815C59.3295 6.0855 60.7732 6.12874 61.9681 6.1563C61.1686 7.08886 60.1831 8.1028 59.345 9.01826L54.2765 14.599L48.8675 20.6112C48.2023 21.3485 47.5385 22.092 46.8854 22.8404C46.7423 23.0045 46.7076 23.0318 46.5269 23.0779C45.2162 23.0747 43.9055 23.0794 42.595 23.0919C43.288 22.1689 44.5278 20.8365 45.3127 19.9596C46.8877 18.1809 48.4839 16.4214 50.1013 14.6812C51.7255 12.9033 53.3599 11.1347 55.004 9.37534C55.9599 8.35552 57.111 7.0942 58.1423 6.15815Z" fill="#161616"/>
<path d="M42.9038 6.14526C44.2457 6.15038 45.5877 6.14799 46.9295 6.13818C47.5323 6.69983 48.1449 7.40288 48.7259 8.00385L51.6587 10.9976C51.2821 11.4055 50.9085 11.816 50.5379 12.2293C50.2358 12.6047 49.7393 13.105 49.4 13.4683C47.9655 11.7634 46.4412 10.1392 44.963 8.47455C44.3238 7.75484 43.4734 6.88469 42.9038 6.14526Z" fill="#161616"/>
<path d="M56.4644 16.1177C57.1619 16.8379 57.892 17.8045 58.562 18.5913C59.8218 20.0707 61.1243 21.5563 62.3359 23.0722C61.4941 23.0885 60.652 23.0887 59.8103 23.073C59.2706 23.0822 58.8013 23.0835 58.2589 23.0625C56.838 21.6468 55.4378 19.7296 53.952 18.4207C54.7028 17.7475 55.7222 16.702 56.4644 16.1177Z" fill="#161616"/>
<path d="M56.9744 13.208C57.1744 13.267 57.4005 13.5322 57.5516 13.6862C55.8428 15.4334 54.3533 17.2826 52.6682 19.0419L51.9753 18.3951C52.5028 17.7721 53.1901 17.0917 53.7623 16.4928C54.8127 15.3781 55.8835 14.2831 56.9744 13.208Z" fill="#161616"/>
</svg>
