<svg width="115" height="46" viewBox="0 0 115 46" fill="none" xmlns="http://www.w3.org/2000/svg">
<path d="M105.733 28.1449C107.995 28.0743 109.489 28.9697 111.045 30.4938C111.039 29.8661 111.037 29.2384 111.038 28.6108L115 28.6081L114.986 38.8313C114.982 40.9625 114.914 43.4245 114.993 45.5121C113.806 45.5003 112.199 45.4686 111.041 45.5411L111.036 43.5081C110.584 44.0504 110.272 44.3166 109.703 44.7228C106.737 46.5447 103.57 46.3913 100.858 44.1553C99.063 42.6635 97.9376 40.5164 97.732 38.1911C97.3789 34.5006 99.0791 31.0657 102.248 29.1198C103.334 28.4524 104.482 28.2632 105.733 28.1449ZM106.746 42.5646C111.592 42.4354 112.463 35.309 109.384 32.5388C108.645 31.8743 107.526 31.3616 106.522 31.5197C105.798 31.5855 105.167 31.6752 104.513 32.0168C101.125 33.7851 100.91 39.2875 103.781 41.6177C104.677 42.345 105.618 42.5726 106.746 42.5646Z" fill="white"/>
<path d="M51.0637 28.2537C51.0796 28.2523 51.0955 28.2508 51.1114 28.2494C53.2831 28.2397 55.4571 28.8065 57.0663 30.3106C58.6805 31.8196 59.5069 33.8594 59.6112 36.0311C59.6501 36.8408 59.5829 37.6091 59.6183 38.3671L59.6211 38.4204C56.666 38.455 53.7105 38.4629 50.7551 38.4446C49.5218 38.4448 48.1832 38.4166 46.9582 38.4644C47.0284 38.9798 47.1779 39.4812 47.4016 39.9508C49.129 43.5957 54.0488 42.9775 57.0543 41.5202C57.3251 41.3706 57.6197 41.223 57.8953 41.0788C57.9796 42.0183 57.9319 43.5188 57.9423 44.5223C51.7566 47.6398 43.5166 45.6672 42.7958 37.9156C42.2852 32.4263 45.6864 28.73 51.0637 28.2537ZM46.954 35.7481C48.2764 35.7495 49.7317 35.7811 51.041 35.6939C52.4975 35.6066 54.1619 35.657 55.6404 35.6656C55.2129 33.3847 54.2372 31.6357 51.6706 31.5801C49.5046 31.5934 47.4579 32.4666 47.04 34.8129C46.987 35.1107 46.9772 35.4431 46.954 35.7481Z" fill="white"/>
<path d="M69.7159 28.3055C72.1289 27.9976 75.0009 29.047 76.6099 30.8818C78.5162 33.0556 78.7991 35.7015 78.6218 38.4624C74.5153 38.4687 70.1165 38.3615 66.0402 38.4675C66.6391 42.5336 70.5287 43.1991 73.8971 42.3241C74.5987 42.1419 75.204 41.9215 75.8717 41.6564C76.271 41.4696 76.56 41.3142 76.9434 41.0944C76.9045 42.2265 76.8852 43.3593 76.8854 44.4921C75.4474 45.2465 73.8813 45.7257 72.2674 45.9048C69.6412 46.1714 66.8852 45.6367 64.8268 43.9164C61.1835 40.8716 60.8186 34.7765 63.8204 31.1675C65.3657 29.3097 67.365 28.517 69.7159 28.3055ZM66.0081 35.7363L70.644 35.7333C71.9798 35.711 73.3157 35.7023 74.6517 35.7075C74.2575 33.1846 73.0929 31.513 70.3389 31.5739C67.5545 31.8262 66.2462 32.9477 66.0081 35.7363Z" fill="white"/>
<path d="M36.0959 22.4664C37.4402 22.4535 38.7844 22.4592 40.1284 22.4836C40.0776 25.5355 40.1386 28.7806 40.1386 31.8526L40.1381 45.5147C38.8919 45.491 37.3924 45.5373 36.1261 45.5477C36.0697 43.3839 36.1361 41.13 36.1162 38.9556C36.0659 33.4772 36.174 27.9398 36.0959 22.4664Z" fill="white"/>
<path d="M94.2383 28.6175C95.4255 28.5448 96.8692 28.5881 98.0641 28.6157C97.2646 29.5482 96.2791 30.5621 95.441 31.4776L90.3725 37.0584L84.9635 43.0705C84.2983 43.8079 83.6345 44.5513 82.9814 45.2997C82.8383 45.4639 82.8036 45.4911 82.6229 45.5373C81.3122 45.534 80.0015 45.5387 78.691 45.5512C79.3841 44.6283 80.6238 43.2958 81.4087 42.4189C82.9837 40.6403 84.5799 38.8807 86.1973 37.1405C87.8215 35.3627 89.4559 33.594 91.1 31.8347C92.0559 30.8149 93.207 29.5536 94.2383 28.6175Z" fill="white"/>
<path d="M78.9997 28.6047C80.3416 28.6099 81.6836 28.6075 83.0254 28.5977C83.6282 29.1593 84.2408 29.8624 84.8218 30.4633L87.7546 33.4571C87.378 33.8649 87.0044 34.2755 86.6338 34.6888C86.3317 35.0642 85.8352 35.5645 85.4959 35.9278C84.0614 34.2229 82.5371 32.5987 81.0589 30.934C80.4197 30.2143 79.5693 29.3442 78.9997 28.6047Z" fill="white"/>
<path d="M92.5603 38.577C93.2578 39.2972 93.9879 40.2638 94.6579 41.0506C95.9177 42.53 97.2202 44.0156 98.4318 45.5315C97.59 45.5478 96.7479 45.548 95.9062 45.5322C95.3665 45.5415 94.8972 45.5428 94.3548 45.5218C92.9339 44.1061 91.5337 42.1889 90.0479 40.88C90.7987 40.2068 91.8181 39.1613 92.5603 38.577Z" fill="white"/>
<path d="M93.0704 35.6672C93.2703 35.7263 93.4964 35.9914 93.6476 36.1454C91.9387 37.8926 90.4492 39.7418 88.7641 41.5012L88.0713 40.8543C88.5987 40.2314 89.286 39.551 89.8582 38.9521C90.9086 37.8374 91.9795 36.7423 93.0704 35.6672Z" fill="white"/>
<path d="M16.8126 0C20.7656 0.0769595 25.7347 0.125125 29.66 0.0027654C33.1009 0.0974421 36.8381 0.022701 40.3009 0.0191944L40.2729 2.08473C39.7546 5.05921 38.8014 7.49017 36.2138 9.29161C33.5146 11.1706 30.9619 11.0918 27.8791 11.0871L21.8002 11.0777C20.2245 11.0759 18.825 11.0757 17.2426 11.1813C9.74524 11.682 3.09074 17.1557 0.742464 24.2169C0.504019 24.9338 0.404545 26.0544 0.0585042 26.6998C-0.0171634 24.9897 0.0155026 22.99 0 21.2571C0.0274987 18.7919 0.00571956 16.2831 0.00811878 13.8145C0.0116253 13.1889 0.0258381 12.5996 0.0788054 11.9797C0.62029 5.63243 5.79023 0.329247 12.2306 0.045401C13.7344 -0.0208543 15.2848 0.0514909 16.8126 0Z" fill="#5D0D15"/>
<path d="M0.449761 34.6515C1.4148 28.9589 3.68335 24.7049 8.4637 21.2139C13.7682 17.3397 18.7344 17.8788 24.8845 17.9002C28.0922 17.9115 31.4307 17.8635 34.6574 17.915C34.6264 23.5299 30.8567 27.9053 25.4398 28.6911C20.6325 29.3884 11.9003 26.7408 12.2096 34.398C12.2484 35.3591 12.2107 36.4869 11.9835 37.4339C11.0905 41.5759 7.58817 44.7131 3.52186 45.6667C2.3898 45.9323 1.51058 45.9773 0.36062 46.0098C0.327031 45.41 0.324265 44.8076 0.328694 44.2071C0.352133 41.0235 0.233278 37.8281 0.449761 34.6515Z" fill="#5D0D15"/>
</svg>
