<svg width="70" height="80" viewBox="0 0 70 80" fill="none" xmlns="http://www.w3.org/2000/svg">
<path d="M29.2024 0C36.0684 0.133673 44.6995 0.217334 51.5175 0.00480331C57.494 0.16925 63.9853 0.0394301 70 0.0333395L69.9513 3.62104C69.0511 8.7875 67.3954 13.0099 62.9009 16.1389C58.2127 19.4025 53.7787 19.2656 48.4241 19.2576L37.8655 19.2413C35.1285 19.2381 32.6977 19.2378 29.9493 19.4211C16.9268 20.2908 5.36841 29.7983 1.28961 42.0632C0.875447 43.3083 0.702667 45.2547 0.101618 46.3757C-0.0298116 43.4054 0.026927 39.9321 0 36.9221C0.0477634 32.6404 0.0099345 28.2827 0.0141018 23.9949C0.0201924 22.9082 0.044879 21.8846 0.13688 20.8079C1.0774 9.78316 10.0572 0.571879 21.2438 0.0788584C23.8557 -0.0362226 26.5488 0.0894362 29.2024 0Z" fill="#5D0D15"/>
<path d="M0.781316 60.1874C2.45752 50.2997 6.39785 42.9108 14.701 36.8471C23.9145 30.1179 32.5405 31.0543 43.2228 31.0915C48.7944 31.111 54.5931 31.0277 60.1977 31.1171C60.1439 40.8698 53.5961 48.4696 44.1874 49.8346C35.8374 51.0457 20.6701 46.4469 21.2074 59.7469C21.2747 61.4164 21.2093 63.3754 20.8147 65.0201C19.2635 72.2145 13.1802 77.6637 6.11735 79.32C4.15104 79.7813 2.62389 79.8595 0.626485 79.9159C0.568143 78.8741 0.563338 77.8278 0.571032 76.7847C0.611743 71.255 0.405299 65.7049 0.781316 60.1874Z" fill="#5D0D15"/>
</svg>
