<svg width="430" height="526" viewBox="0 0 430 526" fill="none" xmlns="http://www.w3.org/2000/svg">
<g filter="url(#filter0_f_405_1915)">
<path d="M327 263C327 325.408 276.856 376 215 376C153.144 376 103 325.408 103 263C103 200.592 153.144 150 215 150C276.856 150 327 200.592 327 263ZM117.694 263C117.694 317.22 161.26 361.174 215 361.174C268.74 361.174 312.306 317.22 312.306 263C312.306 208.78 268.74 164.826 215 164.826C161.26 164.826 117.694 208.78 117.694 263Z" fill="url(#paint0_linear_405_1915)" fill-opacity="0.8"/>
</g>
<defs>
<filter id="filter0_f_405_1915" x="-47" y="0" width="524" height="526" filterUnits="userSpaceOnUse" color-interpolation-filters="sRGB">
<feFlood flood-opacity="0" result="BackgroundImageFix"/>
<feBlend mode="normal" in="SourceGraphic" in2="BackgroundImageFix" result="shape"/>
<feGaussianBlur stdDeviation="75" result="effect1_foregroundBlur_405_1915"/>
</filter>
<linearGradient id="paint0_linear_405_1915" x1="103" y1="150" x2="306.283" y2="393.309" gradientUnits="userSpaceOnUse">
<stop stop-color="#161616"/>
<stop offset="0.331731" stop-color="#8C000E"/>
</linearGradient>
</defs>
</svg>
