<svg width="24" height="24" viewBox="0 0 24 24" fill="none" xmlns="http://www.w3.org/2000/svg">
<path d="M9.58004 12.6295C8.79626 13.069 8.14395 13.7097 7.69042 14.4855C7.23689 15.2612 6.99857 16.1439 7.00004 17.0425C6.99745 18.0308 7.28548 18.9981 7.8283 19.8239C8.37113 20.6498 9.14478 21.2979 10.053 21.6875C10.754 21.9875 11.105 22.1375 11.553 21.8375C12.001 21.5375 12 21.0475 12 20.0675V14.5005C11.4464 14.5006 10.9085 14.317 10.4705 13.9783C10.0325 13.6397 9.71932 13.1653 9.58004 12.6295ZM9.50004 12.0005H3.93304C2.95304 12.0005 2.46304 12.0005 2.16304 11.5525C1.86304 11.1055 2.01304 10.7545 2.31304 10.0525C2.70282 9.14446 3.35095 8.37101 4.17682 7.82837C5.00268 7.28574 5.96985 6.99785 6.95804 7.00053C8.85804 7.00053 10.511 8.04153 11.371 9.58053C10.8352 9.71981 10.3608 10.033 10.0222 10.471C9.68361 10.9089 9.49994 11.4469 9.50004 12.0005ZM12 9.50053V3.93353C12 2.95353 12 2.46353 12.448 2.16353C12.895 1.86353 13.246 2.01353 13.948 2.31353C14.8561 2.70331 15.6296 3.35143 16.1722 4.1773C16.7148 5.00317 17.0027 5.97034 17 6.95853C17 8.85853 15.959 10.5115 14.42 11.3715C14.2808 10.8357 13.9676 10.3613 13.5296 10.0227C13.0916 9.6841 12.5536 9.50043 12 9.50053ZM12.629 14.4205C13.1648 14.2812 13.6392 13.968 13.9779 13.5301C14.3165 13.0921 14.5001 12.5541 14.5 12.0005H20.067C21.047 12.0005 21.537 12.0005 21.837 12.4485C22.137 12.8955 21.987 13.2465 21.687 13.9485C21.2973 14.8566 20.6491 15.63 19.8233 16.1727C18.9974 16.7153 18.0302 17.0032 17.042 17.0005C16.1434 17.002 15.2607 16.7637 14.485 16.3101C13.7092 15.8566 13.0685 15.2043 12.629 14.4205Z" stroke="white" stroke-linejoin="round"/>
<path d="M14.5 12C14.5 12.663 14.2366 13.2989 13.7678 13.7678C13.2989 14.2366 12.663 14.5 12 14.5C11.337 14.5 10.7011 14.2366 10.2322 13.7678C9.76339 13.2989 9.5 12.663 9.5 12C9.5 11.337 9.76339 10.7011 10.2322 10.2322C10.7011 9.76339 11.337 9.5 12 9.5C12.663 9.5 13.2989 9.76339 13.7678 10.2322C14.2366 10.7011 14.5 11.337 14.5 12Z" stroke="white" stroke-width="1.5"/>
</svg>
