<svg width="24" height="24" viewBox="0 0 24 24" fill="none" xmlns="http://www.w3.org/2000/svg">
<path fill-rule="evenodd" clip-rule="evenodd" d="M12.0002 2.74988C10.6078 2.74988 9.27247 3.303 8.2879 4.28757C7.30334 5.27213 6.75021 6.60749 6.75021 7.99988C6.75021 9.39227 7.30334 10.7276 8.2879 11.7122C9.27247 12.6968 10.6078 13.2499 12.0002 13.2499C13.3926 13.2499 14.728 12.6968 15.7125 11.7122C16.6971 10.7276 17.2502 9.39227 17.2502 7.99988C17.2502 6.60749 16.6971 5.27213 15.7125 4.28757C14.728 3.303 13.3926 2.74988 12.0002 2.74988ZM5.25021 7.99988C5.25106 7.03996 5.45664 6.09126 5.85324 5.21709C6.24983 4.34292 6.82831 3.5634 7.55008 2.93054C8.27184 2.29769 9.12029 1.82605 10.0388 1.54712C10.9573 1.26818 11.9247 1.18836 12.8765 1.31299C13.8283 1.43761 14.7426 1.7638 15.5583 2.26981C16.3741 2.77581 17.0725 3.44998 17.607 4.24732C18.1415 5.04466 18.4998 5.94684 18.6579 6.89364C18.8161 7.84045 18.7705 8.8101 18.5242 9.73788C19.4137 10.0953 20.2169 10.6381 20.8804 11.3301C21.5438 12.0221 22.0523 12.8474 22.372 13.7511C22.6917 14.6549 22.8153 15.6164 22.7346 16.5716C22.6538 17.5269 22.3706 18.454 21.9037 19.2912C21.4369 20.1285 20.7971 20.8568 20.0269 21.4276C19.2567 21.9984 18.3738 22.3986 17.4369 22.6017C16.5 22.8048 15.5306 22.806 14.5932 22.6054C13.6558 22.4047 12.7719 22.0067 12.0002 21.4379C11.2285 22.0039 10.3453 22.3994 9.40914 22.5981C8.47296 22.7968 7.50524 22.7941 6.57017 22.5903C5.63511 22.3864 4.75407 21.9861 3.98552 21.4158C3.21697 20.8455 2.57847 20.1183 2.11239 19.2825C1.64631 18.4466 1.3633 17.5212 1.28213 16.5676C1.20097 15.614 1.3235 14.6541 1.64161 13.7515C1.95972 12.8489 2.46613 12.0242 3.12724 11.3323C3.78835 10.6403 4.58905 10.0968 5.47621 9.73788C5.32622 9.17072 5.25026 8.58654 5.25021 7.99988ZM6.02021 11.1359C4.8938 11.596 3.96209 12.433 3.38427 13.5038C2.80644 14.5746 2.61834 15.8128 2.85211 17.0069C3.08588 18.201 3.727 19.2769 4.66596 20.0508C5.60492 20.8246 6.78345 21.2485 8.00021 21.2499C8.80366 21.2502 9.59645 21.066 10.3175 20.7117C11.0386 20.3573 11.6688 19.8422 12.1594 19.206C12.6501 18.5697 12.9881 17.8294 13.1476 17.0419C13.3071 16.2544 13.2837 15.4409 13.0792 14.6639C11.6813 14.8904 10.2475 14.6715 8.98081 14.0382C7.71414 13.4048 6.67876 12.3892 6.02121 11.1349M14.5252 14.2609C14.6732 14.8159 14.7512 15.3989 14.7512 15.9989C14.7539 17.6107 14.1772 19.1698 13.1262 20.3919C13.7389 20.7905 14.428 21.0568 15.1495 21.1738C15.871 21.2907 16.609 21.2557 17.3162 21.071C18.0234 20.8863 18.6842 20.5559 19.2564 20.1011C19.8286 19.6462 20.2995 19.0769 20.6389 18.4296C20.9784 17.7823 21.1789 17.0712 21.2278 16.3419C21.2766 15.6127 21.1725 14.8812 20.9224 14.1944C20.6722 13.5076 20.2813 12.8807 19.7749 12.3537C19.2684 11.8266 18.6575 11.4112 17.9812 11.1339C17.2349 12.5519 16.0105 13.6597 14.5252 14.2609Z" fill="white"/>
</svg>
