<svg width="28" height="28" viewBox="0 0 28 28" fill="none" xmlns="http://www.w3.org/2000/svg">
<path d="M21 8.1665V5.83317C21 5.52375 20.8771 5.22701 20.6583 5.00821C20.4395 4.78942 20.1428 4.6665 19.8333 4.6665H7.58333C7.475 4.6665 7.36881 4.69667 7.27666 4.75362C7.1845 4.81058 7.11003 4.89207 7.06158 4.98896C7.01314 5.08586 6.99263 5.19433 7.00236 5.30222C7.01209 5.41012 7.05167 5.51317 7.11667 5.59984L12.3667 12.5998C12.6696 13.0037 12.8333 13.495 12.8333 13.9998C12.8333 14.5047 12.6696 14.9959 12.3667 15.3998L7.11667 22.3998C7.05167 22.4865 7.01209 22.5896 7.00236 22.6975C6.99263 22.8053 7.01314 22.9138 7.06158 23.0107C7.11003 23.1076 7.1845 23.1891 7.27666 23.246C7.36881 23.303 7.475 23.3332 7.58333 23.3332H19.8333C20.1428 23.3332 20.4395 23.2103 20.6583 22.9915C20.8771 22.7727 21 22.4759 21 22.1665V19.8332" stroke="white" stroke-width="1.5" stroke-linecap="round" stroke-linejoin="round"/>
</svg>
