<svg width="310" height="311" viewBox="0 0 310 311" fill="none" xmlns="http://www.w3.org/2000/svg">
<g filter="url(#filter0_d_1117_2011)">
<path d="M279.762 149.31C279.762 218.621 223.797 274.81 154.762 274.81C85.7261 274.81 29.7617 218.621 29.7617 149.31C29.7617 79.9978 85.7261 23.8095 154.762 23.8095C223.797 23.8095 279.762 79.9978 279.762 149.31ZM35.4375 149.31C35.4375 215.474 88.8608 269.111 154.762 269.111C220.663 269.111 274.086 215.474 274.086 149.31C274.086 83.145 220.663 29.508 154.762 29.508C88.8608 29.508 35.4375 83.145 35.4375 149.31Z" fill="#5D0D15"/>
</g>
<path fill-rule="evenodd" clip-rule="evenodd" d="M157.872 127.262C155.133 127.261 152.449 128.034 150.13 129.491C147.811 130.948 145.95 133.031 144.762 135.499C144.457 136.13 143.925 136.624 143.272 136.881C142.619 137.139 141.893 137.14 141.239 136.886C139.01 136.024 136.619 135.662 134.235 135.828C131.852 135.993 129.534 136.682 127.446 137.844C125.358 139.007 123.552 140.615 122.155 142.554C120.759 144.493 119.807 146.715 119.366 149.064C118.926 151.413 119.008 153.829 119.606 156.143C120.205 158.456 121.306 160.609 122.83 162.449C124.355 164.289 126.266 165.771 128.428 166.789C130.589 167.807 132.949 168.337 135.338 168.341H178.672C180.248 168.34 181.807 168.003 183.243 167.352C184.678 166.701 185.959 165.751 186.998 164.566C188.038 163.38 188.812 161.987 189.27 160.478C189.727 158.969 189.858 157.38 189.652 155.817C189.447 154.254 188.91 152.753 188.078 151.414C187.245 150.075 186.137 148.929 184.827 148.052C183.516 147.176 182.033 146.59 180.478 146.332C178.923 146.074 177.33 146.152 175.807 146.559C175.367 146.677 174.905 146.685 174.461 146.583C174.017 146.481 173.604 146.272 173.26 145.974C172.915 145.676 172.649 145.298 172.484 144.874C172.319 144.449 172.261 143.99 172.314 143.538C172.381 142.97 172.414 142.393 172.414 141.808C172.414 139.898 172.038 138.006 171.307 136.241C170.576 134.477 169.505 132.873 168.154 131.522C166.803 130.172 165.2 129.1 163.435 128.369C161.67 127.638 159.778 127.262 157.868 127.262M140.934 130.93C143.229 127.357 146.597 124.602 150.554 123.059C154.51 121.516 158.854 121.264 162.963 122.339C167.071 123.415 170.734 125.762 173.428 129.046C176.121 132.33 177.707 136.382 177.957 140.621C178.193 140.611 178.43 140.606 178.668 140.606C183.043 140.672 187.216 142.456 190.287 145.572C193.357 148.689 195.078 152.889 195.078 157.264C195.078 161.639 193.357 165.839 190.287 168.955C187.216 172.072 183.043 173.856 178.668 173.921H135.338C132.232 173.917 129.163 173.251 126.334 171.967C123.506 170.683 120.983 168.812 118.935 166.476C116.887 164.141 115.36 161.396 114.456 158.424C113.553 155.453 113.293 152.322 113.694 149.242C114.095 146.162 115.148 143.203 116.783 140.562C118.418 137.92 120.597 135.658 123.174 133.925C125.752 132.192 128.67 131.029 131.733 130.513C134.796 129.996 137.934 130.138 140.937 130.93" fill="#5D0D15"/>
<defs>
<filter id="filter0_d_1117_2011" x="-0.00018692" y="-1.52588e-05" width="309.524" height="310.524" filterUnits="userSpaceOnUse" color-interpolation-filters="sRGB">
<feFlood flood-opacity="0" result="BackgroundImageFix"/>
<feColorMatrix in="SourceAlpha" type="matrix" values="0 0 0 0 0 0 0 0 0 0 0 0 0 0 0 0 0 0 127 0" result="hardAlpha"/>
<feMorphology radius="14.881" operator="dilate" in="SourceAlpha" result="effect1_dropShadow_1117_2011"/>
<feOffset dy="5.95238"/>
<feGaussianBlur stdDeviation="7.44048"/>
<feComposite in2="hardAlpha" operator="out"/>
<feColorMatrix type="matrix" values="0 0 0 0 0.292308 0 0 0 0 0 0 0 0 0 0 0 0 0 0.25 0"/>
<feBlend mode="normal" in2="BackgroundImageFix" result="effect1_dropShadow_1117_2011"/>
<feBlend mode="normal" in="SourceGraphic" in2="effect1_dropShadow_1117_2011" result="shape"/>
</filter>
</defs>
</svg>
