<svg width="24" height="24" viewBox="0 0 24 24" fill="none" xmlns="http://www.w3.org/2000/svg">
<path fill-rule="evenodd" clip-rule="evenodd" d="M10.255 1.38672L11.515 2.14272C13.1131 3.08739 14.3408 4.54936 14.995 6.28672C15.217 5.78672 15.481 5.30172 15.726 4.81172L16.707 5.79272C18.909 7.99472 21 11.2947 21 14.4997C21 18.7977 18.35 21.5227 14.11 21.9937L12.72 22.1477L13.024 20.7827C13.261 19.7147 13.304 19.0167 13.254 18.5277C13.194 17.9127 12.902 17.4297 12.538 16.9497C12.19 16.4897 11.845 16.0287 11.569 15.5197C10.434 16.4167 9.994 17.2267 9.853 17.8937C9.673 18.7477 9.92801 19.6207 10.394 20.5527L11.216 22.1967L9.39001 21.9937C6.81401 21.7077 4.27601 19.9867 3.27601 17.4757C2.23101 14.8487 2.97001 11.6697 6.34601 8.74372C8.58601 6.80272 9.77201 4.28572 10.255 1.38672ZM11.587 4.68672C10.825 6.82672 9.36201 8.77672 7.65501 10.2557C4.74401 12.7787 4.48301 15.0997 5.13501 16.7357C5.62001 17.9557 6.66701 18.9587 7.90801 19.5277C7.76302 18.8538 7.75893 18.1573 7.89601 17.4817C8.22201 15.9357 9.33401 14.4867 11.47 13.1517L12.547 12.4787L12.949 13.6837C13.301 14.7397 14.031 15.4867 14.602 16.4137C15.23 17.4337 15.35 18.6037 15.222 19.7717C17.842 19.1167 19 17.1297 19 14.4997C19 12.2777 17.66 10.0977 16.33 8.39372C15.782 9.62172 14.627 10.0537 13.5 10.6177V8.99972C13.5 7.63072 12.943 5.96172 11.587 4.68772V4.68672Z" fill="white"/>
</svg>
