<svg width="24" height="24" viewBox="0 0 24 24" fill="none" xmlns="http://www.w3.org/2000/svg">
<path fill-rule="evenodd" clip-rule="evenodd" d="M10.2551 1.38672L11.5151 2.14272C13.1132 3.08739 14.3409 4.54936 14.9951 6.28672C15.2171 5.78672 15.4811 5.30172 15.7261 4.81172L16.7071 5.79272C18.9091 7.99472 21.0001 11.2947 21.0001 14.4997C21.0001 18.7977 18.3501 21.5227 14.1101 21.9937L12.7201 22.1477L13.0241 20.7827C13.2611 19.7147 13.3041 19.0167 13.2541 18.5277C13.1941 17.9127 12.9021 17.4297 12.5381 16.9497C12.1901 16.4897 11.8451 16.0287 11.5691 15.5197C10.4341 16.4167 9.99407 17.2267 9.85307 17.8937C9.67307 18.7477 9.92807 19.6207 10.3941 20.5527L11.2161 22.1967L9.39007 21.9937C6.81407 21.7077 4.27607 19.9867 3.27607 17.4757C2.23107 14.8487 2.97007 11.6697 6.34607 8.74372C8.58607 6.80272 9.77207 4.28572 10.2551 1.38672ZM11.5871 4.68672C10.8251 6.82672 9.36207 8.77672 7.65507 10.2557C4.74407 12.7787 4.48307 15.0997 5.13507 16.7357C5.62007 17.9557 6.66707 18.9587 7.90807 19.5277C7.76308 18.8538 7.75899 18.1573 7.89607 17.4817C8.22207 15.9357 9.33407 14.4867 11.4701 13.1517L12.5471 12.4787L12.9491 13.6837C13.3011 14.7397 14.0311 15.4867 14.6021 16.4137C15.2301 17.4337 15.3501 18.6037 15.2221 19.7717C17.8421 19.1167 19.0001 17.1297 19.0001 14.4997C19.0001 12.2777 17.6601 10.0977 16.3301 8.39372C15.7821 9.62172 14.6271 10.0537 13.5001 10.6177V8.99972C13.5001 7.63072 12.9431 5.96172 11.5871 4.68772V4.68672Z" fill="white"/>
</svg>
