<svg width="24" height="24" viewBox="0 0 24 24" fill="none" xmlns="http://www.w3.org/2000/svg">
<path d="M11.0181 6.68059C11.406 6.66611 11.8596 6.67161 12.2528 6.67354C14.0131 6.68207 15.8572 6.81325 17.5786 7.15833C18.7301 7.42139 20.3035 7.70141 21.0541 8.59508C21.4376 9.05174 21.018 9.49266 20.6407 9.7762C20.6009 9.80169 20.482 9.72721 20.4521 9.70728C19.833 9.29538 19.0796 9.19464 18.3982 8.93719L18.3792 8.92993C18.2899 9.10971 17.9999 9.52745 17.8747 9.7075C18.3669 9.7604 19.2706 10.0665 19.7483 10.2288C19.6152 10.5647 19.3048 11.0322 19.0384 11.2989C17.7 12.6391 15.7202 12.85 13.845 12.965C13.7365 12.413 13.2459 12.1521 12.6741 12.0231C12.6339 12.0112 12.5932 12.0012 12.552 11.9928C11.8763 11.8518 10.9436 11.9376 10.3447 12.2651C10.044 12.4296 9.90528 12.6362 9.83125 12.9354C9.45237 12.8692 8.99279 12.8517 8.60379 12.8037C6.54028 12.5487 4.77654 12.0491 3.9258 10.2263C4.42779 10.0415 5.24071 9.79189 5.78613 9.69567C5.67103 9.54738 5.3898 9.05752 5.28745 8.96532C5.1073 8.94963 3.83634 9.39418 3.61833 9.49486C3.46922 9.56372 3.2028 9.71257 3.05696 9.80147C2.98666 9.75457 2.91889 9.70475 2.8539 9.65207C2.65641 9.49139 2.46996 9.26554 2.47169 9.0213C2.477 8.27268 3.57381 7.86572 4.20684 7.65176C6.3758 6.91872 8.7225 6.74505 11.0181 6.68059ZM9.84118 8.32888C9.93181 8.61655 9.95285 8.89299 10.0744 9.19321C10.4443 9.15171 11.0406 9.15627 11.4198 9.15286C11.7377 9.15 12.1958 9.14444 12.5039 9.16205C12.8337 9.16585 13.3016 9.16183 13.6272 9.18815C13.6527 8.93516 13.7659 8.58721 13.8217 8.3269C13.6403 8.34248 13.1373 8.30207 12.9276 8.29701C12.3398 8.2849 11.7517 8.28303 11.1637 8.29134C10.903 8.29481 10.6638 8.30422 10.4042 8.3187C10.2798 8.32563 9.94853 8.3422 9.84118 8.32888ZM14.8011 8.39103C14.7882 8.57527 14.6481 9.05339 14.5928 9.26053C14.9635 9.27605 15.378 9.32185 15.7476 9.36418C16.0986 9.40437 16.549 9.45347 16.8912 9.52783L16.9802 9.3698C17.1153 9.15826 17.2466 8.95596 17.3714 8.73919C17.2857 8.70721 17.0161 8.68244 16.9072 8.66262C16.5566 8.59883 16.2086 8.55782 15.8576 8.51444C15.5767 8.47971 15.058 8.45081 14.8011 8.39103ZM8.78345 8.41503C8.29025 8.44971 7.79908 8.50453 7.31149 8.57928C7.00739 8.62382 6.56903 8.70226 6.27493 8.72692C6.37716 8.86701 6.63363 9.26785 6.72284 9.42506C6.74265 9.45897 6.7611 9.50257 6.79645 9.51936C7.01979 9.49657 7.2419 9.43949 7.44679 9.41736C7.95412 9.36248 8.57461 9.27237 9.08262 9.26862C8.99754 9.04327 8.92252 8.66174 8.85341 8.41839C8.8457 8.41448 8.83805 8.41062 8.8304 8.40677L8.78345 8.41503Z" fill="white"/>
<path d="M11.3157 3.41936C13.8501 3.40981 16.3968 3.56255 18.8077 4.32557C19.5899 4.57313 20.9096 5.09124 21.2981 5.80518C21.5872 6.33653 21.397 7.35477 21.4518 7.96898C21.3571 7.75914 21.276 7.6005 21.095 7.43646C19.5429 6.02916 14.4831 5.64642 12.302 5.64158C9.57299 5.63822 6.79016 5.78019 4.20053 6.6149C3.27876 6.91198 2.62125 7.16019 2.18758 7.99809C2.213 7.42936 2.09923 6.35217 2.32288 5.85703C2.3904 5.70753 2.51768 5.57151 2.64079 5.45587C3.26041 4.87381 4.15032 4.536 4.98645 4.28236C7.03504 3.66091 9.16252 3.46515 11.3157 3.41936Z" fill="white"/>
<path d="M3.90763 18.4277C4.26853 18.4292 4.45038 18.6454 4.7308 18.7881C5.06348 18.9573 5.44476 19.1697 5.79651 19.3013C8.41218 20.2798 11.3103 20.5243 14.1114 20.2156C15.3431 20.074 16.5486 19.7885 17.6967 19.3662C18.0515 19.2365 18.4199 19.0706 18.7467 18.8931C18.9802 18.7499 19.1675 18.6324 19.4158 18.5052C19.7995 18.3086 20.2107 18.5395 20.1614 18.9316C20.139 19.1101 19.9567 19.2198 19.7985 19.3254C15.8738 21.7262 9.20406 21.7594 4.98634 19.9181C4.61802 19.7573 3.6306 19.3005 3.51315 18.9537C3.47687 18.8456 3.49298 18.7288 3.55759 18.6318C3.63899 18.5106 3.7609 18.4587 3.90763 18.4277Z" fill="white"/>
<path d="M5.74729 16.144C6.08725 16.1231 6.3273 16.3307 6.62684 16.4476C8.22133 17.0702 10.0106 17.3278 11.7459 17.3229C13.6434 17.3175 15.6921 17.0914 17.3849 16.2818C17.548 16.2036 17.7088 16.1244 17.8993 16.1463C18.1736 16.1778 18.3302 16.4151 18.3013 16.6463C18.2778 16.8161 18.084 16.9299 17.9392 17.0164C17.6671 17.1596 17.1925 17.3641 16.8861 17.46C13.5897 18.4911 9.3882 18.4843 6.17386 17.2181C5.9174 17.1003 5.48874 16.9558 5.39211 16.6903C5.29629 16.4271 5.47211 16.2234 5.74729 16.144Z" fill="white"/>
</svg>
