<svg width="28" height="28" viewBox="0 0 28 28" fill="none" xmlns="http://www.w3.org/2000/svg">
<path d="M23.5835 11.6253C23.5835 11.4338 23.5458 11.2441 23.4725 11.0672C23.3992 10.8903 23.2918 10.7295 23.1564 10.5941C23.021 10.4587 22.8602 10.3512 22.6833 10.2779C22.5063 10.2047 22.3167 10.1669 22.1252 10.1669C21.9337 10.1669 21.744 10.2047 21.5671 10.2779C21.3902 10.3512 21.2294 10.4587 21.094 10.5941C20.9586 10.7295 20.8512 10.8903 20.7779 11.0672C20.7046 11.2441 20.6669 11.4338 20.6669 11.6253H23.5835ZM7.25019 11.6253C7.25019 11.2385 7.09655 10.8676 6.82306 10.5941C6.54957 10.3206 6.17863 10.1669 5.79186 10.1669C5.40508 10.1669 5.03415 10.3206 4.76066 10.5941C4.48717 10.8676 4.33353 11.2385 4.33353 11.6253H7.25019ZM23.4272 14.9899C23.7007 15.2635 24.0717 15.4171 24.4585 15.4171C24.8453 15.4171 25.2163 15.2635 25.4899 14.9899C25.7634 14.7164 25.917 14.3454 25.917 13.9586C25.917 13.5718 25.7634 13.2008 25.4899 12.9273L23.4272 14.9899ZM13.9585 3.45861L14.9899 2.42727C14.8544 2.29181 14.6937 2.18436 14.5167 2.11105C14.3397 2.03773 14.1501 2 13.9585 2C13.767 2 13.5773 2.03773 13.4004 2.11105C13.2234 2.18436 13.0626 2.29181 12.9272 2.42727L13.9585 3.45861ZM2.42719 12.9273C2.15367 13.2008 2 13.5718 2 13.9586C2 14.3454 2.15367 14.7164 2.42719 14.9899C2.70072 15.2635 3.0717 15.4171 3.45853 15.4171C3.84535 15.4171 4.21633 15.2635 4.48986 14.9899L2.42719 12.9273ZM8.12519 25.9169H19.7919V23.0003H8.12519V25.9169ZM23.5835 22.1253V11.6253H20.6669V22.1253H23.5835ZM7.25019 22.1253V11.6253H4.33353V22.1253H7.25019ZM25.4899 12.9273L14.9899 2.42727L12.9272 4.48994L23.4272 14.9899L25.4899 12.9273ZM12.9272 2.42727L2.42719 12.9273L4.48986 14.9899L14.9899 4.48994L12.9272 2.42727ZM19.7919 25.9169C20.7975 25.9169 21.7619 25.5175 22.473 24.8064C23.184 24.0953 23.5835 23.1309 23.5835 22.1253H20.6669C20.6669 22.3573 20.5747 22.5799 20.4106 22.744C20.2465 22.9081 20.0239 23.0003 19.7919 23.0003V25.9169ZM8.12519 23.0003C7.89313 23.0003 7.67057 22.9081 7.50647 22.744C7.34238 22.5799 7.25019 22.3573 7.25019 22.1253H4.33353C4.33353 23.1309 4.733 24.0953 5.44408 24.8064C6.15515 25.5175 7.11958 25.9169 8.12519 25.9169V23.0003Z" fill="#8A8A8A"/>
</svg>
