<svg width="49" height="49" viewBox="0 0 49 49" fill="none" xmlns="http://www.w3.org/2000/svg">
<path fill-rule="evenodd" clip-rule="evenodd" d="M18.375 42.875C18.375 42.3335 18.5901 41.8142 18.973 41.4313C19.3559 41.0484 19.8752 40.8333 20.4167 40.8333H28.5834C29.1249 40.8333 29.6442 41.0484 30.0271 41.4313C30.4099 41.8142 30.625 42.3335 30.625 42.875C30.625 43.4165 30.4099 43.9358 30.0271 44.3186C29.6442 44.7015 29.1249 44.9166 28.5834 44.9166H20.4167C19.8752 44.9166 19.3559 44.7015 18.973 44.3186C18.5901 43.9358 18.375 43.4165 18.375 42.875ZM18.375 31.4927C18.9165 31.4927 19.4358 31.7078 19.8187 32.0907C20.2016 32.4736 20.4167 32.9929 20.4167 33.5343V34.3469C20.4167 35.1105 21.0353 35.7291 21.7989 35.7291H27.2012C27.5678 35.7291 27.9193 35.5835 28.1785 35.3243C28.4377 35.0651 28.5834 34.7135 28.5834 34.3469V33.6875C28.5834 33.146 28.7985 32.6267 29.1814 32.2438C29.5643 31.8609 30.0836 31.6458 30.625 31.6458C31.1665 31.6458 31.6858 31.8609 32.0687 32.2438C32.4516 32.6267 32.6667 33.146 32.6667 33.6875V34.3469C32.667 35.0647 32.5258 35.7756 32.2512 36.4388C31.9766 37.102 31.5741 37.7047 31.0665 38.2122C30.5589 38.7198 29.9563 39.1224 29.2931 39.397C28.6298 39.6715 27.919 39.8127 27.2012 39.8125H21.7989C21.0811 39.8127 20.3703 39.6715 19.707 39.397C19.0438 39.1224 18.4412 38.7198 17.9336 38.2122C17.426 37.7047 17.0234 37.102 16.7489 36.4388C16.4743 35.7756 16.3331 35.0647 16.3334 34.3469V33.5343C16.3334 32.9929 16.5485 32.4736 16.9314 32.0907C17.3143 31.7078 17.8336 31.4927 18.375 31.4927Z" fill="white" fill-opacity="0.81"/>
<path d="M29.0489 34.3939C29.3286 35.2514 30.2534 35.7292 31.0803 35.3658C34.5177 33.8529 37.3287 31.2017 39.0399 27.8586C40.7511 24.5156 41.258 20.6849 40.4752 17.0119C39.6924 13.3388 37.6678 10.0477 34.7422 7.69281C31.8167 5.33794 28.169 4.06319 24.4134 4.08324C20.6579 4.1033 17.024 5.41693 14.1238 7.80291C11.2236 10.1889 9.23415 13.5014 8.49062 17.1827C7.7471 20.8639 8.29487 24.6889 10.0417 28.0135C11.7885 31.3381 14.6277 33.9591 18.081 35.4352C18.9099 35.7905 19.8307 35.3045 20.1023 34.443L20.2799 33.8754C20.5494 33.0158 20.0635 32.1073 19.2468 31.7275C16.6758 30.5334 14.5882 28.4992 13.3281 25.9599C12.068 23.4206 11.7104 20.5277 12.3144 17.758C12.9184 14.9884 14.4479 12.507 16.6508 10.7229C18.8538 8.93883 21.5988 7.95838 24.4335 7.94314C27.2682 7.92789 30.0236 8.87875 32.2456 10.6391C34.4676 12.3994 36.0237 14.8641 36.6574 17.6271C37.2912 20.3902 36.9648 23.2867 35.7321 25.8394C34.4993 28.3921 32.4338 30.4487 29.8757 31.6704C29.0611 32.0583 28.5854 32.9709 28.8651 33.8304L29.0489 34.3939Z" fill="white" fill-opacity="0.81"/>
</svg>
