<svg width="24" height="24" viewBox="0 0 24 24" fill="none" xmlns="http://www.w3.org/2000/svg">
<path d="M20.742 13.045C20.0645 13.226 19.3662 13.3171 18.665 13.316C16.53 13.316 14.525 12.486 13.019 10.98C12.0305 9.98508 11.3198 8.74858 10.9577 7.39361C10.5955 6.03864 10.5946 4.61245 10.955 3.25701C11.0001 3.08755 10.9998 2.90921 10.9542 2.73988C10.9086 2.57056 10.8192 2.41621 10.6951 2.29232C10.571 2.16842 10.4165 2.07934 10.2471 2.034C10.0777 1.98866 9.89939 1.98867 9.73 2.03401C8.03291 2.48558 6.48466 3.37611 5.241 4.61601C1.343 8.51401 1.343 14.859 5.241 18.759C6.16763 19.6906 7.26975 20.4292 8.48364 20.9321C9.69752 21.435 10.9991 21.6923 12.313 21.689C13.6266 21.6927 14.9279 21.4357 16.1415 20.9329C17.3551 20.4302 18.4569 19.6916 19.383 18.76C20.6236 17.5159 21.5145 15.9669 21.966 14.269C22.0112 14.0996 22.0111 13.9212 21.9656 13.7519C21.9201 13.5825 21.8309 13.4281 21.7069 13.3041C21.5829 13.1801 21.4285 13.0909 21.2591 13.0454C21.0898 12.9999 20.9114 12.9998 20.742 13.045ZM17.97 17.346C17.2289 18.091 16.3474 18.6816 15.3766 19.0838C14.4058 19.486 13.3648 19.6917 12.314 19.689C11.2628 19.6918 10.2214 19.4861 9.25023 19.0837C8.27904 18.6814 7.39728 18.0904 6.656 17.345C3.538 14.226 3.538 9.15001 6.656 6.03101C7.25937 5.4302 7.95479 4.92957 8.716 4.54801C8.60468 5.98705 8.80525 7.43317 9.30401 8.7876C9.80277 10.142 10.588 11.3728 11.606 12.396C12.6267 13.4175 13.8572 14.2051 15.2122 14.7042C16.5672 15.2034 18.0145 15.4022 19.454 15.287C19.0721 16.0479 18.5711 16.743 17.97 17.346Z" fill="white"/>
</svg>
