<svg width="18" height="18" viewBox="0 0 18 18" fill="none" xmlns="http://www.w3.org/2000/svg">
<path d="M14.25 8.25H3.75C2.92157 8.25 2.25 8.92157 2.25 9.75V15C2.25 15.8284 2.92157 16.5 3.75 16.5H14.25C15.0784 16.5 15.75 15.8284 15.75 15V9.75C15.75 8.92157 15.0784 8.25 14.25 8.25Z" stroke="white" stroke-width="1.5" stroke-linecap="round" stroke-linejoin="round"/>
<path d="M5.25024 8.25V5.25C5.25024 4.25544 5.64533 3.30161 6.34859 2.59835C7.05186 1.89509 8.00568 1.5 9.00024 1.5C9.99481 1.5 10.9486 1.89509 11.6519 2.59835C12.3552 3.30161 12.7502 4.25544 12.7502 5.25V8.25" stroke="white" stroke-width="1.5" stroke-linecap="round" stroke-linejoin="round"/>
</svg>
