<svg width="348" height="260" viewBox="0 0 348 260" fill="none" xmlns="http://www.w3.org/2000/svg">
<path d="M105.279 74.7553C102.095 75.9038 100.124 77.7614 97.4612 79.7314C97.229 79.9032 96.479 79.7976 96.2463 79.6117C94.9594 78.5846 93.1989 77.1553 92.4492 75.6458C92.1443 74.9974 94.1623 73.2681 94.6201 72.8745C97.8155 70.0757 101.567 68.0561 105.602 66.9626C113.242 64.908 122.097 66.4596 128.792 70.7387C130.285 71.6926 133.035 73.5801 133.474 75.4441C133.267 76.8264 130.666 79.8483 129.199 79.813C128.59 79.7983 126.855 78.0738 126.166 77.5655C119.668 72.7714 114.736 72.9386 107.157 73.3046L105.952 73.6493L105.279 74.7553Z" fill="#5D0D15"/>
<path d="M105.279 74.7553C102.095 75.9038 100.124 77.7614 97.4612 79.7314C97.229 79.9032 96.479 79.7976 96.2463 79.6117C94.9594 78.5846 93.1989 77.1553 92.4492 75.6458C92.1443 74.9974 94.1623 73.2681 94.6201 72.8745C97.8155 70.0757 101.567 68.0561 105.602 66.9626C113.242 64.908 122.097 66.4596 128.792 70.7387C130.285 71.6926 133.035 73.5801 133.474 75.4441C133.267 76.8264 130.666 79.8483 129.199 79.813C128.59 79.7983 126.855 78.0738 126.166 77.5655C119.668 72.7714 114.736 72.9386 107.157 73.3046C108.495 72.6107 108.56 71.9083 110.356 71.7925C111.293 71.7321 112.385 71.4736 113.371 71.5536C119.763 71.5981 124.5 74.279 129.357 78.2388C130.274 77.35 131.181 76.4509 132.079 75.5418C121.691 64.7975 104.746 65.2292 94.1339 75.4329C95.0649 76.3485 96.0487 77.3535 97.0058 78.2269C99.0838 76.3766 102.101 73.8912 104.917 73.3949C105.002 73.3799 105.805 73.6112 105.952 73.6493L105.279 74.7553Z" fill="#5D0D15"/>
<path d="M109.829 79.1128C111.229 78.3558 111.889 78.072 113.42 78.5726C114.077 78.927 114.243 79.1138 114.963 78.8111C116.924 77.0028 127.423 82.2776 127.269 85.605C127.225 86.568 124.586 89.0255 123.638 89.1489C121.885 88.5836 120.58 87.3305 119.116 86.4938C115.22 84.2728 109.516 84.5425 106.134 87.6775C105.609 88.1642 104.59 89.0119 104 88.6688C101.601 87.2718 98.1764 85.1325 101.914 82.6301C103.557 81.5301 104.851 80.2285 106.629 79.359C107.515 78.8948 108.033 79.625 108.756 79.8043L109.829 79.1128Z" fill="#5D0D15"/>
<path d="M114.963 78.8109C116.924 77.0026 127.423 82.2774 127.269 85.6048C127.225 86.5679 124.586 89.0253 123.638 89.1487C121.885 88.5834 120.58 87.3303 119.116 86.4936C115.22 84.2726 109.516 84.5423 106.134 87.6774C105.609 88.164 104.59 89.0118 104 88.6686C101.601 87.2716 98.1764 85.1323 101.914 82.6299C103.557 81.5299 104.851 80.2284 106.629 79.3589C107.515 78.8946 108.033 79.6248 108.756 79.8041L108.77 79.9093C108.503 80.4383 108.716 80.0802 108.214 80.1797L107.836 80.7768C106.665 81.3819 105.428 81.9042 104.346 82.6628C103.293 83.4009 102.633 84.0681 101.764 84.9849C102.643 85.95 103.244 86.5394 104.213 87.41C110.828 81.55 116.763 82.3927 123.395 87.6954C124.188 86.9457 125.094 85.9388 125.86 85.1323C123.298 81.7796 119.194 80.6693 115.405 79.7822C115.088 79.7079 115.038 79.1086 114.963 78.8109Z" fill="#5D0D15"/>
<path d="M109.83 79.1128C111.229 78.3558 111.889 78.072 113.42 78.5726C113.38 79.3192 113.49 79.1108 113.116 79.6387C112.016 80.2141 110.488 80.4517 109.83 79.1128Z" fill="#5D0D15"/>
<path d="M76.9905 205.424C80.825 204.973 84.2846 207.855 84.72 211.864C85.1556 215.873 82.4022 219.493 78.5685 219.952C74.7298 220.411 71.2626 217.529 70.8265 213.514C70.3906 209.5 73.1511 205.877 76.9905 205.424Z" fill="#5D0D15"/>
<path d="M116.371 93.0113C117.031 93.0289 117.239 92.9701 117.765 93.3266C118.931 94.9967 117.596 97.0884 116.268 98.3289C113.234 101.162 107.935 97.7393 108.667 93.8822C109.278 90.6657 114.355 87.8403 116.461 91.8701L116.371 93.0113Z" fill="#5D0D15"/>
<path d="M116.371 93.0112C117.116 94.53 116.331 96.5925 114.809 97.3362C113.885 97.7832 112.823 97.8067 111.881 97.401C111.239 97.1221 110.673 96.6164 110.423 95.9236C110.08 94.9734 110.301 93.9049 110.704 93.0136C112.131 89.8543 114.681 92.5417 116.461 91.87L116.371 93.0112Z" fill="#5D0D15"/>
<path d="M69.7606 182.369L70.3294 182.506C72.3915 184.597 71.6742 190.13 69.9712 192.438C67.2038 191.654 69.3214 189.417 69.3858 187.473C69.4538 185.417 67.9931 183.881 69.7606 182.369Z" fill="#5D0D15"/>
<path d="M52.6067 178.596C53.4069 178.566 53.9754 178.837 54.3021 179.598C54.2614 181.078 52.9236 181.93 52.3872 183.069C52.0352 183.817 52.2423 184.684 51.5694 185.607C47.4274 184.992 50.7355 179.878 52.6067 178.596Z" fill="#5D0D15"/>
<path d="M59.0615 175.135C60.0005 175.071 61.1723 174.869 61.7739 175.764C61.9537 178.262 59.2816 177.599 57.4063 178.269C56.5205 178.662 55.7046 178.907 54.9323 178.132C54.4357 176.187 57.8131 175.488 59.0615 175.135Z" fill="#5D0D15"/>
<path d="M67.1725 193.183C70.3207 192.766 67.4423 197.41 63.5324 198.135C62.8604 197.966 62.7716 197.896 62.2876 197.43C62.0836 196.881 62.1138 197.16 62.2178 196.562C62.8648 195.641 65.8162 194.151 67.1725 193.183Z" fill="#5D0D15"/>
<path d="M54.3688 193.915C55.5373 194.161 56.6129 195.281 57.6689 195.588C59.1448 196.016 61.3446 195.846 59.7708 198.246C57.6636 198.43 52.0469 197.087 54.3688 193.915Z" fill="#5D0D15"/>
<path d="M50.0637 186.782C50.6726 186.876 50.7951 186.949 51.375 187.199C51.8362 187.727 51.6337 188.385 51.8913 189.128C52.2922 190.284 52.9343 191.286 53.2109 192.475C53.1429 193.056 52.8792 193.311 52.5378 193.781C50.5807 193.736 49.9091 190.651 49.5676 188.97C49.3924 188.107 49.5579 187.472 50.0637 186.782Z" fill="#5D0D15"/>
<path d="M63.9682 176.003C65.3718 175.896 68.7333 178.454 69.0695 179.942C69.0093 180.54 68.8541 180.629 68.4552 181.066C67.1018 181.016 64.3274 178.612 63.3975 177.511C63.173 177.245 63.8013 176.274 63.9682 176.003Z" fill="#5D0D15"/>
<path d="M201.903 44.0989C204.139 44.7602 203.471 47.8726 202.568 49.4459C202.463 49.5245 202.232 49.6014 202.098 49.6551L201.794 49.4924C201.374 48.6083 201.676 45.122 201.903 44.0989Z" fill="#5D0D15"/>
<path d="M192.719 50.9924C193.745 50.9927 195.64 51.5522 196.514 52.2314C196.806 52.8401 196.726 52.614 196.664 53.372C195.055 53.4503 192.557 53.2443 192.719 50.9924Z" fill="#5D0D15"/>
<path d="M190.919 46.5117C191.107 46.6031 191.242 46.7114 191.417 46.8322C191.766 47.6077 192.539 49.5246 192.622 50.4006C192.644 50.6251 192.382 50.7854 192.164 51.0015C190.692 50.261 189.517 47.9438 190.919 46.5117Z" fill="#5D0D15"/>
<path d="M196.074 40.0044C196.716 39.9953 197.031 39.9619 197.492 40.4054L197.455 40.7142C196.716 41.5642 196.259 41.5636 195.2 41.8343C194.854 42.0109 194.829 41.9806 194.436 42.0022C193.993 41.7305 194.158 41.9164 193.942 41.4074C194.1 40.0338 195.033 40.0761 196.074 40.0044Z" fill="#5D0D15"/>
<path d="M200.655 50.5908C201.303 50.6973 201.077 50.5349 201.438 50.9466C201.281 51.958 199.637 52.847 198.794 53.2263C198.427 53.024 198.35 52.9525 198.008 52.7026C197.534 51.5241 199.726 50.9886 200.655 50.5908Z" fill="#5D0D15"/>
<path d="M192.118 41.7717C194.069 42.6976 192.254 44.3901 191.35 45.3813L190.81 45.3254C190.052 44.4073 191.43 42.4269 192.118 41.7717Z" fill="#5D0D15"/>
<path d="M198.982 40.4893C199.795 40.7014 201.569 41.9491 201.856 42.8363C201.918 43.0301 201.64 43.4701 201.543 43.6715C200.622 43.3351 199.272 42.5962 198.794 41.5905C198.587 41.1568 198.795 40.9126 198.982 40.4893Z" fill="#5D0D15"/>
<path d="M297.159 112.018C306.966 110.686 315.97 117.814 317.327 127.983C318.684 138.151 311.884 147.552 302.097 149.035C292.208 150.535 283.035 143.386 281.666 133.11C280.294 122.833 287.25 113.365 297.159 112.018Z" fill="#5D0D15"/>
<path d="M280.084 132.943C278.7 132.455 272.957 129.751 273.224 127.849C273.691 124.52 277.072 128.67 278.649 128.483L278.893 128.612C279.226 130.411 281.011 129.747 281.82 131.348C281.827 132.02 281.283 132.853 280.863 133.348L280.812 133.981L280.084 132.943Z" fill="#5D0D15"/>
<path d="M306.28 104.672C310.207 104.08 310.364 118.829 307.768 121.357C307.588 121.372 307.407 121.382 307.225 121.388C305.07 121.435 305.98 118.82 306.296 117.503C306.713 115.826 306.995 113.932 306.88 112.193C306.742 110.097 305.686 108.06 305.556 105.962C305.521 105.372 305.903 105.036 306.28 104.672Z" fill="#5D0D15"/>
<path d="M303.905 123.887C309.003 124.642 300.685 130.725 299.309 131.536C298.534 131.491 298.33 131.407 297.807 130.822C297.639 130.335 297.613 129.647 298.053 129.373C299.992 128.162 302.283 124.998 303.905 123.887Z" fill="#5D0D15"/>
<path d="M293.052 131.231C293.904 131.298 294.41 131.814 294.584 132.677C294.075 134.783 288.192 134.616 286.569 134.542C285.554 134.419 284.998 133.82 285.206 132.733C285.841 131.884 286.782 131.77 287.755 131.775C289.605 131.785 291.236 131.608 293.052 131.231Z" fill="#5D0D15"/>
<path d="M279.264 93.3709C280.255 93.2947 281.457 93.9934 281.245 95.0611C280.986 96.3668 278.268 97.5372 277.171 98.3931C276.152 99.1869 275.31 100.034 274.336 100.813C273.33 100.798 272.012 99.7549 272.468 98.8071C273.5 96.6532 277.223 94.3265 279.264 93.3709Z" fill="#5D0D15"/>
<path d="M269.92 102.257C272.709 102.64 271.153 105.297 270.511 107.079C269.931 108.688 269.642 111.545 268.214 112.212C267.629 112.129 267.06 112.079 266.639 111.664C265.966 110.258 267.768 105.432 268.496 103.966C268.888 103.176 269.238 102.769 269.92 102.257Z" fill="#5D0D15"/>
<path d="M303.131 102.235L303.184 101.969C301.217 100.187 299.266 98.595 297.202 96.9515C296.204 96.1563 296.41 94.5626 297.882 94.6357C299.998 94.7416 307.695 100.308 303.739 102.375C303.439 102.366 303.428 102.33 303.131 102.235Z" fill="#5D0D15"/>
<path d="M286.731 91.6975C288.197 91.6119 295.898 91.3318 293.748 94.8848C293.503 95.2926 292.762 95.2848 292.341 95.2412C291.298 95.1058 290.397 94.8926 289.289 94.7977C288.246 94.709 285.861 94.9035 285.06 94.6747C284.867 94.4849 284.714 94.3557 284.622 94.0927C283.921 92.1037 285.446 92.015 286.731 91.6975Z" fill="#5D0D15"/>
<path d="M267.635 115.471C268.473 115.413 268.612 115.39 269.215 115.927C269.479 116.756 271.913 123.448 271.88 123.671C271.788 124.32 271.427 124.581 270.959 124.944C269.114 124.785 268.246 122.375 267.684 120.745C267.097 119.042 265.92 116.752 267.635 115.471Z" fill="#5D0D15"/>
<path d="M175.905 89.6572C177.286 88.9206 176.296 88.5097 177.15 87.6607C178.335 87.0826 180.21 86.781 181.542 86.5511C189.259 85.2679 197.164 86.0576 204.51 88.846C214.672 92.6789 223.48 101.547 227.995 111.765C229.217 114.53 231.664 122.773 231.594 125.855C231.397 127.926 231.744 129.213 231.678 131.227C231.747 131.306 231.817 131.384 231.888 131.462C240.312 137.267 245.689 146.656 245.868 157.371C245.998 165.154 242.176 173.599 236.81 179.044C235.53 180.359 232.102 183.663 229.984 183.931C229.82 183.951 229.124 183.46 228.93 183.324L228.482 183.304C226.007 185.246 223.875 185.774 220.839 186.06C219.755 186.25 218.547 186.275 217.443 186.328C216.952 187.592 216.687 188.077 215.255 188.086C206.89 188.141 198.529 187.803 190.167 187.911C189.344 187.921 188.945 187.279 188.465 186.678C184.516 186.664 180.568 186.614 176.621 186.532C176.084 186.519 175.682 186.392 175.334 186.739C174.257 187.813 173.299 189.157 172.383 190.374C170.331 193.092 168.314 195.84 166.334 198.616C164.665 200.926 162.978 203.405 160.982 205.413C160.495 205.903 159.336 205.844 158.78 206.123C158.442 205.982 158.117 205.863 157.775 205.733C157.491 205.212 156.775 204.126 156.743 203.643C156.628 201.927 156.921 199.787 157.078 198.058L158.134 186.816C157.35 186.813 156.852 186.787 156.072 186.7C150.799 186.597 145.436 186.622 140.162 186.658C138.421 186.669 132.327 186.518 131.008 186.911C130.509 188.505 128.11 188.325 127.197 187.081L126.908 186.757C124.507 186.3 124.811 187.967 122.841 187.998C112.076 188.17 101.588 188.605 92.8775 180.966C70.8899 161.682 83.0006 129.183 110.838 126.526C112.291 123.994 113.319 122.012 115.19 119.753C123.851 109.294 137.211 106.492 149.5 110.92C152.342 105.427 155.368 100.888 159.908 96.7765C160.632 96.1201 161.1 95.6926 161.951 95.222C163.658 94.2771 163.828 95.7958 165.092 96.1514C165.989 95.4171 166.552 94.9704 167.516 94.3532C167.385 93.4826 166.621 91.3842 168.169 90.814C169.366 90.3729 170.303 91.0839 171.31 91.6494C172.017 91.2219 175.106 89.9011 175.905 89.6572Z" fill="#5D0D15" fill-opacity="0.2"/>
<path d="M164.073 148.117C163.692 147.646 163.33 147.293 163.412 146.627C163.525 145.701 171.873 134.447 172.897 133.219C173.255 132.789 173.664 132.371 174.133 132.076C174.798 131.659 175.574 131.484 176.327 131.732C176.819 131.894 177.184 132.273 177.415 132.748C177.734 133.401 177.809 134.146 177.792 134.87C177.725 137.714 177.144 140.649 176.852 143.485C176.283 149.035 175.849 154.716 175.013 160.225C175.432 160.997 178.565 160.512 179.395 160.295C179.642 160.232 179.746 159.776 179.854 159.519C180.118 159.307 180.487 158.997 180.853 158.974C184.23 158.759 187.851 158.856 191.238 158.982C191.848 159.004 192.655 159.569 193 160.068C193.38 160.624 193.506 161.326 193.344 161.987C192.755 164.485 180.291 179.086 178.267 182.406C177.663 183.399 176.034 184.972 175.457 186.129C175.977 186.432 176.073 186.16 176.725 186.332L176.62 186.532C176.084 186.519 175.681 186.392 175.334 186.739C174.257 187.813 173.299 189.157 172.382 190.374C170.33 193.092 168.313 195.84 166.334 198.616C164.665 200.926 162.977 203.405 160.981 205.413C160.494 205.903 159.335 205.844 158.78 206.123C158.441 205.982 158.116 205.863 157.775 205.733C157.49 205.212 156.774 204.126 156.742 203.643C156.627 201.927 156.92 199.787 157.077 198.058L158.134 186.816C157.349 186.813 156.851 186.787 156.071 186.7C156.752 186.6 157.626 186.63 158.328 186.627C158.562 183.69 158.983 180.392 159.268 177.396C155.181 177.541 151.093 177.706 147.006 177.826C145.242 177.879 143.019 177.424 143.134 175.105C143.152 174.68 143.28 174.269 143.504 173.915C145.524 170.69 150.862 164.057 153.274 160.692C153.522 160.347 154.44 160.54 154.871 160.639C155.579 160.133 157.692 157.01 158.301 156.14C159.795 157.011 161.753 155.39 159.933 153.575C160.481 153.339 163.5 148.924 164.073 148.117Z" fill="#5D0D15"/>
<path d="M179.854 159.519C180.118 159.307 180.487 158.997 180.853 158.974C184.23 158.759 187.851 158.856 191.238 158.982C191.848 159.004 192.655 159.568 193 160.068C193.38 160.624 193.506 161.326 193.344 161.987C192.755 164.485 180.291 179.086 178.267 182.406C177.663 183.399 176.034 184.972 175.457 186.129C175.977 186.432 176.073 186.16 176.725 186.332L176.62 186.532C176.084 186.519 175.681 186.392 175.334 186.739C174.257 187.812 173.299 189.157 172.382 190.374C170.33 193.091 168.313 195.84 166.334 198.616C164.665 200.926 162.977 203.405 160.981 205.413C160.494 205.903 159.335 205.844 158.78 206.122C158.441 205.982 158.116 205.863 157.775 205.733C157.49 205.212 156.774 204.126 156.742 203.643C156.627 201.927 156.92 199.787 157.077 198.058L158.134 186.816C157.349 186.813 156.851 186.787 156.071 186.7C156.752 186.6 157.626 186.63 158.328 186.627C158.562 183.69 158.983 180.392 159.268 177.396C155.181 177.541 151.093 177.706 147.006 177.826C145.242 177.879 143.019 177.424 143.134 175.105C143.152 174.68 143.28 174.269 143.504 173.915C145.524 170.69 150.862 164.057 153.274 160.692C153.522 160.347 154.44 160.54 154.871 160.639C155.175 160.989 155.425 161.274 155.488 161.763C155.632 162.893 147.573 173.309 146.391 174.82C151.124 174.837 155.926 174.344 160.659 174.522C161.913 174.624 162.371 175.485 162.207 176.699C161.076 185.072 161.002 194.162 159.693 202.451C163.736 196.43 169.251 189.423 173.707 183.601L190.086 161.94C187.146 161.791 184.111 162.069 181.177 161.886C179.626 161.789 179.631 160.84 179.854 159.519Z" fill="#5D0D15"/>
<path d="M164.074 148.117C163.693 147.646 163.33 147.293 163.412 146.627C163.526 145.701 171.873 134.447 172.898 133.219C173.256 132.789 173.665 132.371 174.134 132.076C174.799 131.659 175.575 131.484 176.328 131.732C176.82 131.894 177.184 132.273 177.416 132.748C177.735 133.401 177.809 134.146 177.792 134.87C177.726 137.714 177.144 140.649 176.852 143.485C176.283 149.035 175.849 154.716 175.013 160.225C174.649 161.164 175.043 163.487 174.438 164.444C173.868 165.347 172.808 165.318 172.032 164.701C171.805 164.331 171.704 164.093 171.744 163.635C172.003 160.716 172.381 157.727 172.702 154.814L174.896 135.339C172.438 138.833 168.342 144.676 165.487 148.018C165.233 148.317 164.489 148.175 164.074 148.117Z" fill="#5D0D15"/>
<path d="M149.5 110.92C152.342 105.427 155.368 100.888 159.908 96.7765C160.632 96.12 161.1 95.6925 161.951 95.2219C163.658 94.277 163.828 95.7957 165.092 96.1513L164.909 96.3813L164.471 96.2959C163.744 97.4454 164.424 97.2225 163.153 98.2231C162.188 98.983 161.039 100.064 160.182 100.936C156.914 104.214 154.263 108.103 152.365 112.402C153.881 113.176 155.881 113.735 155.603 115.835C154.459 117.645 151.004 115.066 149.518 114.401C138.292 109.383 125.007 112.267 116.973 122.547C115.895 123.95 114.945 125.456 114.135 127.045C118.355 127.367 122.103 128.347 125.887 130.371C126.566 130.734 127.208 130.957 127.897 131.489C129.385 132.639 129.7 134.865 127.18 134.474C126.428 134.358 125.297 133.483 124.593 133.141C123.601 132.509 122.795 132.175 121.716 131.759C114.023 128.715 105.432 129.426 98.2921 133.695C91.9346 137.477 87.5305 143.054 85.5901 150.489C83.8696 157.136 84.7321 164.225 87.9898 170.211C91.7166 176.946 97.8331 181.874 105.012 183.923C111.021 185.587 117.617 184.533 123.776 184.935C124.503 184.983 124.84 185.811 125.076 186.407C125.871 186.514 126.09 186.211 126.775 186.483L126.908 186.757C124.507 186.3 124.811 187.967 122.841 187.998C112.076 188.17 101.588 188.605 92.8775 180.966C70.8899 161.682 83.0006 129.183 110.838 126.526C112.291 123.993 113.319 122.012 115.19 119.753C123.851 109.294 137.211 106.492 149.5 110.92Z" fill="#5D0D15"/>
<path d="M175.904 89.6572C177.285 88.9206 176.295 88.5097 177.149 87.6607C178.334 87.0826 180.209 86.781 181.541 86.5511C189.258 85.2679 197.163 86.0576 204.509 88.846C214.671 92.6789 223.479 101.547 227.994 111.765C229.216 114.53 231.663 122.773 231.593 125.855C231.396 127.926 231.743 129.213 231.677 131.227C231.746 131.306 231.816 131.384 231.887 131.462C240.311 137.267 245.688 146.656 245.867 157.371C245.997 165.154 242.175 173.599 236.809 179.044C235.529 180.359 232.101 183.663 229.983 183.931C229.819 183.951 229.123 183.46 228.929 183.324L228.481 183.304C228.6 183.049 228.653 182.994 228.633 182.787C228.467 181.242 229.912 180.658 230.958 179.911C249.981 166.307 244.971 137.222 222.53 130.836C215.498 128.878 208.008 129.927 201.716 133.75C200.185 134.662 197.754 135.13 198.481 132.408C198.72 131.515 203.754 129.291 204.987 128.809C212.981 125.687 221.265 126.457 228.799 130.149C228.673 127.269 228.48 124.31 227.895 121.494C223.138 98.6349 200.81 84.5831 179.249 90.3021C177.162 90.8556 177.521 89.754 175.904 89.6572Z" fill="#5D0D15"/>
<path d="M188.396 186.398C188.817 185.281 189.036 184.89 190.309 184.884C198.86 184.837 207.434 184.791 215.98 184.945C216.548 184.954 216.897 185.608 217.151 186.043C218.403 186.001 219.588 185.933 220.838 186.06C219.754 186.25 218.546 186.275 217.442 186.328C216.951 187.592 216.685 188.077 215.254 188.087C206.889 188.141 198.528 187.804 190.166 187.911C189.343 187.922 188.944 187.279 188.464 186.678C184.515 186.664 180.567 186.615 176.62 186.532L176.725 186.333C180.38 186.194 184.708 186.334 188.396 186.398Z" fill="#5D0D15"/>
<path d="M167.517 94.3534C167.386 93.4828 166.622 91.3844 168.169 90.8142C169.366 90.3731 170.303 91.084 171.31 91.6496L170.92 91.8606L170.881 92.0388C170.713 92.7933 170.617 93.3511 169.991 93.7877C169.238 94.3129 168.689 94.0424 167.867 93.9537C167.858 93.9528 167.592 94.2947 167.517 94.3534Z" fill="#5D0D15"/>
<path d="M127.196 187.081C127.48 186.577 127.275 186.166 127.541 185.681C128.552 183.843 130.717 184.755 130.821 186.687L131.007 186.912C130.508 188.505 128.11 188.325 127.196 187.081Z" fill="#5D0D15"/>
<path d="M158.302 156.14C156.594 154.633 157.613 152.724 159.934 153.575C161.753 155.39 159.795 157.011 158.302 156.14Z" fill="#5D0D15"/>
</svg>
