<svg width="24" height="24" viewBox="0 0 24 24" fill="none" xmlns="http://www.w3.org/2000/svg">
<path fill-rule="evenodd" clip-rule="evenodd" d="M10.5099 5.22C9.88888 5.388 9.30888 5.651 8.90488 6.015C7.80188 7.01 7.35288 8.358 7.35288 10.788C7.35288 12.52 6.36688 14.16 5.65688 15.222C5.50288 15.454 5.45488 15.675 5.46388 15.808C5.46788 15.868 5.48188 15.896 5.48788 15.906C5.49188 15.913 5.50388 15.932 5.55188 15.958C6.24388 16.328 7.28788 16.598 8.49488 16.769C9.65667 16.9249 10.8277 17.0021 11.9999 17C12.2651 17 12.5195 17.1054 12.707 17.2929C12.8945 17.4804 12.9999 17.7348 12.9999 18C12.9999 18.2652 12.8945 18.5196 12.707 18.7071C12.5195 18.8946 12.2651 19 11.9999 19C10.8719 19 9.51588 18.935 8.21388 18.75C6.93188 18.567 5.61088 18.257 4.60888 17.722C3.87188 17.328 3.51588 16.642 3.46888 15.943C3.42288 15.284 3.64588 14.633 3.99388 14.112C4.71088 13.038 5.35288 11.853 5.35288 10.788C5.35288 8.127 5.84488 6.081 7.56588 4.53C8.29088 3.876 9.20188 3.503 9.98488 3.29C10.6415 3.10792 11.3186 3.01046 11.9999 3C12.2651 3 12.5195 3.10536 12.707 3.29289C12.8945 3.48043 12.9999 3.73478 12.9999 4C12.9999 4.26522 12.8945 4.51957 12.707 4.70711C12.5195 4.89464 12.2651 5 11.9999 5C11.6939 5 11.1239 5.052 10.5099 5.22Z" fill="white"/>
<path fill-rule="evenodd" clip-rule="evenodd" d="M13.49 5.22C14.111 5.388 14.691 5.651 15.095 6.015C16.198 7.01 16.647 8.358 16.647 10.788C16.647 12.52 17.633 14.16 18.343 15.222C18.497 15.454 18.545 15.675 18.536 15.808C18.5365 15.8422 18.5282 15.8759 18.512 15.906C18.508 15.913 18.496 15.932 18.448 15.958C17.756 16.328 16.712 16.598 15.505 16.769C14.3432 16.9249 13.1722 17.0021 12 17C11.7348 17 11.4804 17.1054 11.2929 17.2929C11.1054 17.4804 11 17.7348 11 18C11 18.2652 11.1054 18.5196 11.2929 18.7071C11.4804 18.8946 11.7348 19 12 19C13.128 19 14.483 18.935 15.786 18.75C17.068 18.567 18.389 18.257 19.391 17.722C20.128 17.328 20.484 16.642 20.531 15.943C20.577 15.284 20.354 14.633 20.006 14.112C19.289 13.038 18.647 11.853 18.647 10.788C18.647 8.127 18.155 6.081 16.434 4.53C15.709 3.876 14.798 3.503 14.015 3.29C13.3584 3.10792 12.6813 3.01046 12 3C11.7348 3 11.4804 3.10536 11.2929 3.29289C11.1054 3.48043 11 3.73478 11 4C11 4.26522 11.1054 4.51957 11.2929 4.70711C11.4804 4.89464 11.7348 5 12 5C12.306 5 12.876 5.052 13.49 5.22Z" fill="white"/>
<path d="M14.647 3.68C14.647 4.375 13.251 3.722 12.147 3.722C11.043 3.722 9.64697 4.375 9.64697 3.679C9.64697 2.984 10.647 2 12.147 2C13.647 2 14.647 2.984 14.647 3.68Z" fill="white"/>
<path fill-rule="evenodd" clip-rule="evenodd" d="M10 18C10 18.5304 10.2107 19.0391 10.5858 19.4142C10.9609 19.7893 11.4696 20 12 20C12.5304 20 13.0391 19.7893 13.4142 19.4142C13.7893 19.0391 14 18.5304 14 18H16C16 19.0609 15.5786 20.0783 14.8284 20.8284C14.0783 21.5786 13.0609 22 12 22C10.9391 22 9.92172 21.5786 9.17157 20.8284C8.42143 20.0783 8 19.0609 8 18H10Z" fill="white"/>
</svg>
