<svg width="28" height="28" viewBox="0 0 28 28" fill="none" xmlns="http://www.w3.org/2000/svg">
<path fill-rule="evenodd" clip-rule="evenodd" d="M16.6587 2.51059C16.227 2.33325 15.6787 2.33325 14.5832 2.33325C13.4877 2.33325 12.9405 2.33325 12.5077 2.51059C12.2229 2.62695 11.9639 2.7985 11.7457 3.01534C11.5275 3.23218 11.3542 3.49004 11.236 3.77409C11.1264 4.03425 11.0844 4.33875 11.0669 4.78092C11.0586 5.10117 10.969 5.41405 10.8065 5.69017C10.6441 5.96628 10.4141 6.19658 10.1382 6.35942C9.85675 6.51587 9.54035 6.59875 9.21833 6.60039C8.89631 6.60202 8.57908 6.52235 8.29605 6.36875C7.90171 6.16109 7.61588 6.04675 7.33355 6.00942C6.71589 5.92883 6.09136 6.09481 5.59521 6.47142C5.22421 6.75375 4.95005 7.22509 4.40288 8.16659C3.85455 9.10809 3.58155 9.57825 3.51971 10.0391C3.43805 10.6528 3.60605 11.2734 3.98638 11.7646C4.15905 11.9886 4.40288 12.1764 4.77971 12.4121C5.33621 12.7586 5.69321 13.3489 5.69321 13.9999C5.69321 14.6509 5.33621 15.2413 4.78088 15.5866C4.40288 15.8234 4.15905 16.0113 3.98521 16.2353C3.79804 16.4782 3.66059 16.7556 3.58071 17.0517C3.50084 17.3477 3.48011 17.6567 3.51971 17.9608C3.58155 18.4204 3.85455 18.8918 4.40288 19.8333C4.95121 20.7748 5.22421 21.2449 5.59521 21.5284C6.08988 21.9053 6.71521 22.0709 7.33355 21.9904C7.61588 21.9531 7.90171 21.8388 8.29605 21.6311C8.57923 21.4773 8.89667 21.3975 9.21891 21.3991C9.54116 21.4008 9.85777 21.4838 10.1394 21.6404C10.7064 21.9671 11.0424 22.5679 11.0669 23.2189C11.0844 23.6623 11.1264 23.9656 11.236 24.2258C11.474 24.7974 11.9314 25.2524 12.5077 25.4893C12.9394 25.6666 13.4877 25.6666 14.5832 25.6666C15.6787 25.6666 16.227 25.6666 16.6587 25.4893C16.9435 25.3729 17.2025 25.2013 17.4207 24.9845C17.639 24.7677 17.8122 24.5098 17.9304 24.2258C18.04 23.9656 18.082 23.6623 18.0995 23.2189C18.1229 22.5679 18.46 21.9659 19.0282 21.6404C19.3097 21.484 19.6261 21.4011 19.9481 21.3995C20.2701 21.3978 20.5873 21.4775 20.8704 21.6311C21.2647 21.8388 21.5505 21.9531 21.8329 21.9904C22.4512 22.0721 23.0765 21.9053 23.5712 21.5284C23.9422 21.2461 24.2164 20.7748 24.7635 19.8333C25.3119 18.8918 25.5849 18.4216 25.6467 17.9608C25.6862 17.6566 25.6652 17.3476 25.5852 17.0515C25.5051 16.7555 25.3674 16.4781 25.18 16.2353C25.0074 16.0113 24.7635 15.8234 24.3867 15.5878C23.8302 15.2413 23.4732 14.6509 23.4732 13.9999C23.4732 13.3489 23.8302 12.7586 24.3855 12.4133C24.7635 12.1764 25.0074 11.9886 25.1812 11.7646C25.3684 11.5217 25.5058 11.2442 25.5857 10.9482C25.6656 10.6521 25.6863 10.3432 25.6467 10.0391C25.5849 9.57942 25.3119 9.10809 24.7635 8.16659C24.2152 7.22509 23.9422 6.75492 23.5712 6.47142C23.0751 6.09481 22.4505 5.92883 21.8329 6.00942C21.5505 6.04675 21.2647 6.16109 20.8704 6.36875C20.5872 6.52255 20.2698 6.60234 19.9475 6.60071C19.6253 6.59908 19.3087 6.51608 19.027 6.35942C18.7514 6.19644 18.5216 5.96608 18.3594 5.68997C18.1972 5.41386 18.1078 5.10106 18.0995 4.78092C18.082 4.33759 18.04 4.03425 17.9304 3.77409C17.8122 3.49004 17.639 3.23218 17.4207 3.01534C17.2025 2.7985 16.9435 2.62695 16.6587 2.51059ZM14.5832 17.4999C16.5315 17.4999 18.11 15.9331 18.11 13.9999C18.11 12.0668 16.5304 10.4999 14.5832 10.4999C12.636 10.4999 11.0564 12.0668 11.0564 13.9999C11.0564 15.9331 12.636 17.4999 14.5832 17.4999Z" fill="#9E1B32"/>
</svg>
