<svg width="28" height="28" viewBox="0 0 28 28" fill="none" xmlns="http://www.w3.org/2000/svg">
<path d="M14 17.5C15.933 17.5 17.5 15.933 17.5 14C17.5 12.067 15.933 10.5 14 10.5C12.067 10.5 10.5 12.067 10.5 14C10.5 15.933 12.067 17.5 14 17.5Z" stroke="#8A8A8A" stroke-width="1.75"/>
<path d="M4.27108 12.4133C4.82292 12.7586 5.17758 13.3489 5.17758 13.9999C5.17758 14.6509 4.82292 15.2413 4.27108 15.5866C3.89658 15.8234 3.65392 16.0113 3.48242 16.2353C3.29585 16.4784 3.15903 16.756 3.07976 17.052C3.00049 17.3481 2.98032 17.6569 3.02042 17.9608C3.08108 18.4204 3.35292 18.8918 3.89542 19.8333C4.44025 20.7748 4.71208 21.2449 5.07958 21.5284C5.32276 21.715 5.60031 21.8518 5.89637 21.9311C6.19244 22.0103 6.50122 22.0305 6.80508 21.9904C7.08508 21.9531 7.36858 21.8388 7.76058 21.6311C8.04122 21.4779 8.35614 21.3984 8.67587 21.4C8.9956 21.4016 9.30969 21.4844 9.58875 21.6404C10.1522 21.9671 10.4871 22.5679 10.5104 23.2189C10.5267 23.6623 10.5687 23.9656 10.6772 24.2258C10.7945 24.509 10.9665 24.7664 11.1833 24.9832C11.4001 25.2 11.6575 25.372 11.9407 25.4893C12.3689 25.6666 12.9126 25.6666 13.9999 25.6666C15.0872 25.6666 15.6309 25.6666 16.0591 25.4893C16.3424 25.372 16.5998 25.2 16.8166 24.9832C17.0334 24.7664 17.2053 24.509 17.3226 24.2258C17.4299 23.9656 17.4731 23.6623 17.4894 23.2189C17.5127 22.5679 17.8476 21.9659 18.4111 21.6404C18.6901 21.4844 19.0042 21.4016 19.324 21.4C19.6437 21.3984 19.9586 21.4779 20.2392 21.6311C20.6312 21.8388 20.9159 21.9531 21.1959 21.9904C21.8092 22.0711 22.4294 21.9049 22.9202 21.5284C23.2877 21.2461 23.5596 20.7748 24.1032 19.8333C24.3459 19.4133 24.5337 19.0878 24.6737 18.8148M23.7288 15.5878C23.4558 15.4215 23.2295 15.1887 23.071 14.9113C22.9125 14.6338 22.8269 14.3206 22.8222 14.0011C22.8222 13.3489 23.1769 12.7586 23.7288 12.4121C24.1033 12.1764 24.3447 11.9886 24.5174 11.7646C24.704 11.5214 24.8408 11.2439 24.9201 10.9478C24.9993 10.6517 25.0195 10.3429 24.9794 10.0391C24.9187 9.57942 24.6469 9.10809 24.1044 8.16659C23.5596 7.22509 23.2877 6.75492 22.9202 6.47142C22.6771 6.28486 22.3995 6.14803 22.1035 6.06876C21.8074 5.98949 21.4986 5.96933 21.1947 6.00942C20.9147 6.04675 20.6312 6.16109 20.2381 6.36875C19.9576 6.52175 19.6429 6.60115 19.3234 6.59951C19.0039 6.59788 18.69 6.51528 18.4111 6.35942C18.1365 6.19573 17.9079 5.96506 17.7467 5.689C17.5855 5.41294 17.497 5.1005 17.4894 4.78092C17.4731 4.33759 17.4311 4.03425 17.3226 3.77409C17.2053 3.4908 17.0334 3.2334 16.8166 3.0166C16.5998 2.7998 16.3424 2.62785 16.0591 2.51059C15.6309 2.33325 15.0872 2.33325 13.9999 2.33325C12.9126 2.33325 12.3689 2.33325 11.9407 2.51059C11.6575 2.62785 11.4001 2.7998 11.1833 3.0166C10.9665 3.2334 10.7945 3.4908 10.6772 3.77409C10.5699 4.03425 10.5267 4.33759 10.5104 4.78092C10.5028 5.1005 10.4143 5.41294 10.2531 5.689C10.0919 5.96506 9.86333 6.19573 9.58875 6.35942C9.30969 6.51549 8.9956 6.5982 8.67587 6.59984C8.35614 6.60147 8.04122 6.52196 7.76058 6.36875C7.36858 6.16109 7.08392 6.04675 6.80392 6.00942C6.19062 5.92877 5.5704 6.09494 5.07958 6.47142C4.71325 6.75492 4.44025 7.22509 3.89658 8.16659C3.65392 8.58659 3.46608 8.91209 3.32608 9.18509" stroke="#8A8A8A" stroke-width="1.75" stroke-linecap="round"/>
</svg>
