<svg width="28" height="28" viewBox="0 0 28 28" fill="none" xmlns="http://www.w3.org/2000/svg">
<path d="M21 12.25C21 11.053 21.6003 9.99775 22.5155 9.366C22.03 7.20515 20.8235 5.27385 19.0946 3.8897C17.3657 2.50555 15.2172 1.75095 13.0025 1.75C12.9018 1.75136 12.8025 1.77263 12.7101 1.81257C12.6177 1.85252 12.5341 1.91035 12.4641 1.98273C12.3942 2.05512 12.3393 2.14063 12.3025 2.23434C12.2658 2.32805 12.2479 2.42811 12.25 2.52875V11.375C12.25 11.6071 12.3422 11.8296 12.5063 11.9937C12.6704 12.1578 12.8929 12.25 13.125 12.25H21ZM14 3.56125C15.7626 3.7838 17.4011 4.58642 18.6573 5.84266C19.9136 7.09891 20.7162 8.73739 20.9388 10.5H14V3.56125ZM1.75 13.1267C1.7501 15.5279 2.6477 17.8423 4.2666 19.6157C5.8855 21.389 8.10878 22.4932 10.5 22.7115V20.9527C8.72769 20.7557 7.07475 19.9629 5.81162 18.7041C4.5485 17.4454 3.74998 15.7952 3.54672 14.0236C3.34346 12.252 3.74749 10.4639 4.69272 8.95176C5.63794 7.43965 7.06838 6.29312 8.75 5.69975V12.25C8.75 13.1783 9.11875 14.0685 9.77513 14.7249C10.4315 15.3813 11.3217 15.75 12.25 15.75H15.75C15.75 15.113 15.9197 14.5145 16.219 14H12.25C11.7859 14 11.3408 13.8156 11.0126 13.4874C10.6844 13.1592 10.5 12.7141 10.5 12.25V4.49925C10.5 3.98475 10.0573 3.57875 9.5515 3.67675C7.35613 4.10035 5.37671 5.27503 3.95311 6.99912C2.52952 8.72321 1.75057 10.8909 1.75 13.1267ZM24.5 10.5C24.0359 10.5 23.5908 10.6844 23.2626 11.0126C22.9344 11.3408 22.75 11.7859 22.75 12.25V24.5C22.75 24.9641 22.9344 25.4092 23.2626 25.7374C23.5908 26.0656 24.0359 26.25 24.5 26.25C24.9641 26.25 25.4092 26.0656 25.7374 25.7374C26.0656 25.4092 26.25 24.9641 26.25 24.5V12.25C26.25 11.7859 26.0656 11.3408 25.7374 11.0126C25.4092 10.6844 24.9641 10.5 24.5 10.5ZM19.25 14C18.7859 14 18.3408 14.1844 18.0126 14.5126C17.6844 14.8408 17.5 15.2859 17.5 15.75V24.5C17.5 24.9641 17.6844 25.4092 18.0126 25.7374C18.3408 26.0656 18.7859 26.25 19.25 26.25C19.7141 26.25 20.1592 26.0656 20.4874 25.7374C20.8156 25.4092 21 24.9641 21 24.5V15.75C21 15.2859 20.8156 14.8408 20.4874 14.5126C20.1592 14.1844 19.7141 14 19.25 14ZM12.25 19.25C12.25 18.7859 12.4344 18.3408 12.7626 18.0126C13.0908 17.6844 13.5359 17.5 14 17.5C14.4641 17.5 14.9092 17.6844 15.2374 18.0126C15.5656 18.3408 15.75 18.7859 15.75 19.25V24.5C15.75 24.9641 15.5656 25.4092 15.2374 25.7374C14.9092 26.0656 14.4641 26.25 14 26.25C13.5359 26.25 13.0908 26.0656 12.7626 25.7374C12.4344 25.4092 12.25 24.9641 12.25 24.5V19.25Z" fill="#8A8A8A"/>
</svg>
