<svg width="28" height="28" viewBox="0 0 28 28" fill="none" xmlns="http://www.w3.org/2000/svg">
<path d="M14.8295 1.76225C14.9893 1.75408 15.1503 1.75 15.3125 1.75C20.3866 1.75 24.5 5.86338 24.5 10.9375C24.5 11.0991 24.4959 11.2601 24.4878 11.4205C24.4761 11.6444 24.3789 11.8554 24.2162 12.0097C24.0536 12.1641 23.8379 12.2501 23.6136 12.25H15.75C15.2859 12.25 14.8408 12.0656 14.5126 11.7374C14.1844 11.4092 14 10.9641 14 10.5V2.63638C13.9999 2.41213 14.0859 2.19642 14.2403 2.03376C14.3946 1.8711 14.6056 1.77391 14.8295 1.76225ZM12.25 6.5975C12.25 5.859 11.62 5.21762 10.822 5.3025C6.21337 5.79775 2.625 9.69763 2.625 14.4375C2.625 19.5125 6.73838 23.625 11.8125 23.625C12.4122 23.6244 12.9955 23.569 13.5625 23.4587V21.875C13.5624 21.358 13.6932 20.8494 13.9427 20.3965C14.1922 19.9437 14.5523 19.5614 14.9894 19.2853C15.4265 19.0092 15.9264 18.8482 16.4425 18.8174C16.9587 18.7866 17.4741 18.887 17.941 19.1091C17.9759 18.351 18.291 17.6328 18.8253 17.0938C19.3596 16.5548 20.0751 16.2334 20.8329 16.1919C20.8813 15.941 20.9192 15.6864 20.9466 15.428C21.0332 14.6291 20.391 14 19.6525 14H14.875C14.1788 14 13.5111 13.7234 13.0188 13.2312C12.5266 12.7389 12.25 12.0712 12.25 11.375V6.5975ZM23.625 15.75C23.625 15.2859 23.8094 14.8408 24.1376 14.5126C24.4658 14.1844 24.9109 14 25.375 14C25.8391 14 26.2842 14.1844 26.6124 14.5126C26.9406 14.8408 27.125 15.2859 27.125 15.75V25.375C27.125 25.8391 26.9406 26.2842 26.6124 26.6124C26.2842 26.9406 25.8391 27.125 25.375 27.125C24.9109 27.125 24.4658 26.9406 24.1376 26.6124C23.8094 26.2842 23.625 25.8391 23.625 25.375V15.75ZM19.25 19.25C19.25 18.7859 19.4344 18.3408 19.7626 18.0126C20.0908 17.6844 20.5359 17.5 21 17.5C21.4641 17.5 21.9092 17.6844 22.2374 18.0126C22.5656 18.3408 22.75 18.7859 22.75 19.25V25.375C22.75 25.8391 22.5656 26.2842 22.2374 26.6124C21.9092 26.9406 21.4641 27.125 21 27.125C20.5359 27.125 20.0908 26.9406 19.7626 26.6124C19.4344 26.2842 19.25 25.8391 19.25 25.375V19.25ZM16.625 20.125C16.1609 20.125 15.7158 20.3094 15.3876 20.6376C15.0594 20.9658 14.875 21.4109 14.875 21.875V25.375C14.875 25.8391 15.0594 26.2842 15.3876 26.6124C15.7158 26.9406 16.1609 27.125 16.625 27.125C17.0891 27.125 17.5342 26.9406 17.8624 26.6124C18.1906 26.2842 18.375 25.8391 18.375 25.375V21.875C18.375 21.4109 18.1906 20.9658 17.8624 20.6376C17.5342 20.3094 17.0891 20.125 16.625 20.125Z" fill="#9E1B32"/>
</svg>
