<svg width="24" height="24" viewBox="0 0 24 24" fill="none" xmlns="http://www.w3.org/2000/svg">
<path d="M17.478 10.9997H17.5C18.6935 10.9997 19.8381 11.4738 20.682 12.3177C21.5259 13.1616 22 14.3062 22 15.4997C22 16.6932 21.5259 17.8377 20.682 18.6817C19.8381 19.5256 18.6935 19.9997 17.5 19.9997H7C5.71535 19.9999 4.47988 19.5057 3.54984 18.6195C2.6198 17.7333 2.06654 16.5231 2.00481 15.24C1.94307 13.9568 2.3776 12.6991 3.21827 11.7277C4.05894 10.7563 5.24125 10.1458 6.52 10.0227M17.478 10.9997C17.492 10.835 17.4993 10.6683 17.5 10.4997C17.5022 9.08085 16.956 7.71607 15.9755 6.69052C14.9951 5.66496 13.6562 5.05798 12.2387 4.9964C10.8212 4.93482 9.43478 5.42341 8.36907 6.36007C7.30337 7.29674 6.64087 8.60901 6.52 10.0227M17.478 10.9997C17.3773 12.1011 16.9469 13.1466 16.243 13.9997M6.52 10.0227C6.678 10.0073 6.838 9.99968 7 9.99968C8.126 9.99968 9.165 10.3717 10 10.9997" stroke="white" stroke-width="0.972973" stroke-linecap="round" stroke-linejoin="round"/>
<path d="M9.00001 5.655C8.64686 5.14463 8.17526 4.72746 7.62562 4.43923C7.07597 4.151 6.46465 4.00028 5.84401 4C5.33833 4.00079 4.83777 4.10118 4.3709 4.29545C3.90403 4.48972 3.48001 4.77406 3.12305 5.13223C2.76609 5.4904 2.48318 5.91538 2.29049 6.3829C2.09779 6.85043 1.99909 7.35133 2.00001 7.857C2.00001 9.154 2.63801 10.3 3.61601 11" stroke="white" stroke-width="0.972973"/>
</svg>
