<svg width="24" height="24" viewBox="0 0 24 24" fill="none" xmlns="http://www.w3.org/2000/svg">
<path d="M11.9999 4.19941C14.0686 4.19941 16.0526 5.0212 17.5153 6.48398C18.9781 7.94676 19.7999 9.93072 19.7999 11.9994C19.7999 14.0681 18.9781 16.0521 17.5153 17.5148C16.0526 18.9776 14.0686 19.7994 11.9999 19.7994V4.19941ZM11.9999 2.39941C9.45382 2.39941 7.01203 3.41084 5.21168 5.21119C3.41133 7.01154 2.3999 9.45334 2.3999 11.9994C2.3999 14.5455 3.41133 16.9873 5.21168 18.7876C7.01203 20.588 9.45382 21.5994 11.9999 21.5994C14.546 21.5994 16.9878 20.588 18.7881 18.7876C20.5885 16.9873 21.5999 14.5455 21.5999 11.9994C21.5999 9.45334 20.5885 7.01154 18.7881 5.21119C16.9878 3.41084 14.546 2.39941 11.9999 2.39941Z" fill="white"/>
</svg>
