<svg width="18" height="18" viewBox="0 0 18 18" fill="none" xmlns="http://www.w3.org/2000/svg">
<path d="M8.79977 3.08025C10.3168 3.08025 11.7717 3.68289 12.8444 4.7556C13.9171 5.82831 14.5198 7.28322 14.5198 8.80025C14.5198 10.3173 13.9171 11.7722 12.8444 12.8449C11.7717 13.9176 10.3168 14.5203 8.79977 14.5203V3.08025ZM8.79977 1.76025C6.93264 1.76025 5.14199 2.50197 3.82173 3.82222C2.50148 5.14248 1.75977 6.93313 1.75977 8.80025C1.75977 10.6674 2.50148 12.458 3.82173 13.7783C5.14199 15.0985 6.93264 15.8403 8.79977 15.8403C10.6669 15.8403 12.4575 15.0985 13.7778 13.7783C15.0981 12.458 15.8398 10.6674 15.8398 8.80025C15.8398 6.93313 15.0981 5.14248 13.7778 3.82222C12.4575 2.50197 10.6669 1.76025 8.79977 1.76025Z" fill="white"/>
</svg>
