<svg width="16" height="16" viewBox="0 0 16 16" fill="none" xmlns="http://www.w3.org/2000/svg">
<path d="M14.1666 8.00009H5.92992M3.02259 8.00009H1.83325M3.02259 8.00009C3.02259 7.61464 3.1757 7.24498 3.44826 6.97243C3.72081 6.69988 4.09047 6.54676 4.47592 6.54676C4.86137 6.54676 5.23103 6.69988 5.50358 6.97243C5.77613 7.24498 5.92925 7.61464 5.92925 8.00009C5.92925 8.38554 5.77613 8.7552 5.50358 9.02775C5.23103 9.3003 4.86137 9.45342 4.47592 9.45342C4.09047 9.45342 3.72081 9.3003 3.44826 9.02775C3.1757 8.7552 3.02259 8.38554 3.02259 8.00009ZM14.1666 12.4048H10.3346M10.3346 12.4048C10.3346 12.7903 10.1811 13.1604 9.90848 13.433C9.63587 13.7056 9.26612 13.8588 8.88058 13.8588C8.49514 13.8588 8.12548 13.705 7.85292 13.4324C7.58037 13.1599 7.42725 12.7902 7.42725 12.4048M10.3346 12.4048C10.3346 12.0192 10.1811 11.6498 9.90848 11.3772C9.63587 11.1046 9.26612 10.9514 8.88058 10.9514C8.49514 10.9514 8.12548 11.1045 7.85292 11.3771C7.58037 11.6496 7.42725 12.0193 7.42725 12.4048M7.42725 12.4048H1.83325M14.1666 3.59542H12.0966M9.18925 3.59542H1.83325M9.18925 3.59542C9.18925 3.20998 9.34237 2.84031 9.61492 2.56776C9.88748 2.29521 10.2571 2.14209 10.6426 2.14209C10.8334 2.14209 11.0224 2.17968 11.1988 2.25272C11.3751 2.32576 11.5353 2.43281 11.6702 2.56776C11.8052 2.70272 11.9123 2.86293 11.9853 3.03926C12.0583 3.21558 12.0959 3.40457 12.0959 3.59542C12.0959 3.78628 12.0583 3.97526 11.9853 4.15159C11.9123 4.32792 11.8052 4.48813 11.6702 4.62308C11.5353 4.75804 11.3751 4.86509 11.1988 4.93813C11.0224 5.01117 10.8334 5.04876 10.6426 5.04876C10.2571 5.04876 9.88748 4.89564 9.61492 4.62308C9.34237 4.35053 9.18925 3.98087 9.18925 3.59542Z" stroke="white" stroke-miterlimit="10" stroke-linecap="round"/>
</svg>
