<svg width="290" height="290" viewBox="0 0 290 290" fill="none" xmlns="http://www.w3.org/2000/svg">
<g filter="url(#filter0_d_1117_2009)">
<path d="M270 141C270 210.036 214.036 266 145 266C75.9644 266 20 210.036 20 141C20 71.9644 75.9644 16 145 16C214.036 16 270 71.9644 270 141ZM25.6758 141C25.6758 206.901 79.0991 260.324 145 260.324C210.901 260.324 264.324 206.901 264.324 141C264.324 75.0991 210.901 21.6758 145 21.6758C79.0991 21.6758 25.6758 75.0991 25.6758 141Z" fill="#5D0D15"/>
</g>
<path d="M128.249 146.688C127.499 145.937 127.155 145.031 127.219 143.968C127.282 142.904 127.729 142.061 128.561 141.438C130.936 139.688 133.519 138.344 136.311 137.407C139.103 136.471 141.999 136.002 144.999 136H146.469C146.947 136 147.436 136.042 147.936 136.125C148.978 136.208 149.832 136.646 150.499 137.438C151.165 138.229 151.457 139.146 151.374 140.188C151.29 141.229 150.853 142.083 150.061 142.75C149.269 143.417 148.353 143.708 147.311 143.625C146.936 143.583 146.551 143.552 146.156 143.53C145.761 143.508 145.375 143.498 144.999 143.5C142.957 143.5 140.999 143.792 139.124 144.375C137.249 144.958 135.478 145.812 133.811 146.938C132.936 147.521 131.968 147.812 130.906 147.812C129.844 147.812 128.959 147.438 128.249 146.688ZM159.406 123.5C164.051 125.167 168.269 127.583 172.061 130.75C172.894 131.458 173.343 132.344 173.406 133.408C173.469 134.471 173.125 135.377 172.374 136.125C171.622 136.873 170.726 137.238 169.686 137.22C168.646 137.202 167.709 136.857 166.874 136.188C163.749 133.688 160.332 131.782 156.624 130.47C152.915 129.158 149.04 128.502 144.999 128.5C140.957 128.498 137.082 129.155 133.374 130.47C129.665 131.785 126.249 133.691 123.124 136.188C122.29 136.854 121.353 137.198 120.311 137.22C119.269 137.242 118.374 136.877 117.624 136.125C116.874 135.373 116.529 134.467 116.591 133.405C116.653 132.343 117.102 131.458 117.939 130.75C121.729 127.583 125.947 125.167 130.594 123.5C135.24 121.833 140.042 121 144.999 121C149.955 121 154.758 121.833 159.406 123.5ZM156.749 164.75C156.249 164.542 155.78 164.323 155.344 164.095C154.907 163.867 154.459 163.585 153.999 163.25L152.186 163.812C151.644 163.979 151.114 163.958 150.594 163.75C150.074 163.542 149.667 163.208 149.374 162.75L148.874 161.875C148.582 161.375 148.478 160.833 148.561 160.25C148.644 159.667 148.915 159.188 149.374 158.812L150.749 157.625C150.665 157.125 150.624 156.583 150.624 156C150.624 155.417 150.665 154.875 150.749 154.375L149.374 153.188C148.915 152.812 148.644 152.344 148.561 151.782C148.478 151.221 148.582 150.689 148.874 150.188L149.436 149.25C149.728 148.792 150.124 148.458 150.624 148.25C151.124 148.042 151.644 148.021 152.186 148.188L153.999 148.75C154.457 148.417 154.905 148.136 155.344 147.907C155.782 147.679 156.25 147.46 156.749 147.25L157.124 145.438C157.249 144.854 157.529 144.386 157.966 144.033C158.403 143.679 158.914 143.502 159.499 143.5H160.499C161.082 143.5 161.593 143.688 162.031 144.062C162.469 144.438 162.75 144.917 162.874 145.5L163.249 147.25C163.749 147.458 164.217 147.677 164.654 147.905C165.09 148.133 165.539 148.415 165.999 148.75L167.811 148.188C168.353 148.021 168.884 148.042 169.406 148.25C169.928 148.458 170.334 148.792 170.624 149.25L171.124 150.125C171.415 150.625 171.519 151.167 171.436 151.75C171.353 152.333 171.082 152.812 170.624 153.188L169.249 154.375C169.332 154.875 169.374 155.417 169.374 156C169.374 156.583 169.332 157.125 169.249 157.625L170.624 158.812C171.082 159.188 171.353 159.657 171.436 160.22C171.519 160.783 171.415 161.314 171.124 161.812L170.561 162.75C170.269 163.208 169.874 163.542 169.374 163.75C168.874 163.958 168.353 163.979 167.811 163.812L165.999 163.25C165.54 163.583 165.093 163.864 164.656 164.092C164.219 164.321 163.75 164.54 163.249 164.75L162.874 166.562C162.749 167.146 162.468 167.615 162.031 167.97C161.594 168.325 161.084 168.502 160.499 168.5H159.499C158.915 168.5 158.405 168.312 157.969 167.938C157.532 167.562 157.25 167.083 157.124 166.5L156.749 164.75ZM156.469 152.467C155.489 153.449 154.999 154.627 154.999 156C154.999 157.373 155.489 158.551 156.469 159.533C157.449 160.514 158.625 161.003 159.999 161C161.372 160.997 162.549 160.507 163.531 159.533C164.513 158.557 165.002 157.38 164.999 156C164.995 154.62 164.506 153.443 163.531 152.47C162.556 151.497 161.379 151.007 159.999 151C158.619 150.993 157.442 151.481 156.469 152.467ZM140.999 152.125C141.832 151.083 142.915 150.562 144.249 150.562C144.457 150.562 144.634 150.657 144.781 150.845C144.928 151.033 145 151.231 144.999 151.437V160.062C144.999 160.271 144.926 160.469 144.781 160.658C144.636 160.846 144.459 160.939 144.249 160.938C142.915 160.938 141.832 160.417 140.999 159.375C140.165 158.333 139.749 157.125 139.749 155.75C139.749 154.375 140.165 153.167 140.999 152.125Z" fill="#5D0D15"/>
<defs>
<filter id="filter0_d_1117_2009" x="0" y="0" width="290" height="290" filterUnits="userSpaceOnUse" color-interpolation-filters="sRGB">
<feFlood flood-opacity="0" result="BackgroundImageFix"/>
<feColorMatrix in="SourceAlpha" type="matrix" values="0 0 0 0 0 0 0 0 0 0 0 0 0 0 0 0 0 0 127 0" result="hardAlpha"/>
<feMorphology radius="10" operator="dilate" in="SourceAlpha" result="effect1_dropShadow_1117_2009"/>
<feOffset dy="4"/>
<feGaussianBlur stdDeviation="5"/>
<feComposite in2="hardAlpha" operator="out"/>
<feColorMatrix type="matrix" values="0 0 0 0 0.292308 0 0 0 0 0 0 0 0 0 0 0 0 0 0.25 0"/>
<feBlend mode="normal" in2="BackgroundImageFix" result="effect1_dropShadow_1117_2009"/>
<feBlend mode="normal" in="SourceGraphic" in2="effect1_dropShadow_1117_2009" result="shape"/>
</filter>
</defs>
</svg>
